<svg width="800" height="800" viewBox="0 0 800 800" fill="none" xmlns="http://www.w3.org/2000/svg">
<path d="M225.628 171.875C350.239 171.875 451.248 273.589 451.248 399.051C451.248 524.513 350.231 626.22 225.628 626.22C101.024 626.22 0 524.513 0 399.051C0 273.589 101.017 171.875 225.628 171.875ZM585.939 185.182C648.245 185.182 698.753 280.925 698.753 399.051H698.761C698.761 517.147 648.253 612.92 585.947 612.92C523.642 612.92 473.133 517.147 473.133 399.051C473.133 280.956 523.634 185.182 585.939 185.182ZM760.323 207.458C782.231 207.458 800 293.236 800 399.051C800 504.836 782.239 590.644 760.323 590.644C738.407 590.644 720.654 504.859 720.654 399.051C720.654 293.244 738.415 207.458 760.323 207.458Z" fill="white"/>
</svg>
