<svg width="758" height="534" viewBox="0 0 758 534" fill="none" xmlns="http://www.w3.org/2000/svg">
<path fill-rule="evenodd" clip-rule="evenodd" d="M674.747 16.256C707.322 25.0173 732.97 50.8335 741.677 83.6142L741.673 83.6174C757.493 143.034 757.493 267.005 757.493 267.005C757.493 267.005 757.493 390.97 741.673 450.392C732.967 483.173 707.318 508.986 674.744 517.754C615.715 533.67 378.995 533.67 378.995 533.67C378.995 533.67 142.279 533.67 83.2462 517.754C50.6752 508.983 25.0203 483.173 16.3202 450.389C0.504089 390.966 0.504089 267.002 0.504089 267.002C0.504089 267.002 0.504089 143.03 16.3202 83.6142C25.0203 50.8335 50.6752 25.0173 83.2494 16.256C142.282 0.333374 378.998 0.333374 378.998 0.333374C378.998 0.333374 615.718 0.333374 674.747 16.256ZM499.428 267.008L301.579 379.557V154.447L499.428 267.008Z" fill="white"/>
</svg>
