<svg width="1120" height="1119" viewBox="0 0 1120 1119" fill="none" xmlns="http://www.w3.org/2000/svg">
<circle cx="560" cy="559" r="496.5" stroke="#4D4D4D" stroke-opacity="0.6"/>
<g filter="url(#filter0_b_122_10018)">
<rect x="994" y="496" width="126" height="126" rx="30" fill="#8C8C8C" fill-opacity="0.1"/>
</g>
<g filter="url(#filter1_b_122_10018)">
<rect x="911.096" y="822" width="126" height="126" rx="30" transform="rotate(45 911.096 822)" fill="#8C8C8C" fill-opacity="0.1"/>
</g>
<g filter="url(#filter2_b_122_10018)">
<rect x="822" y="207.096" width="126" height="126" rx="30" transform="rotate(-45 822 207.096)" fill="#8C8C8C" fill-opacity="0.1"/>
</g>
<g filter="url(#filter3_b_122_10018)">
<rect x="498" y="126" width="126" height="126" rx="30" transform="rotate(-90 498 126)" fill="#8C8C8C" fill-opacity="0.1"/>
</g>
<g filter="url(#filter4_b_122_10018)">
<rect x="625" y="993" width="126" height="126" rx="30" transform="rotate(90 625 993)" fill="#8C8C8C" fill-opacity="0.1"/>
</g>
<g clip-path="url(#clip0_122_10018)">
<path d="M1010 559C1010 584.957 1031.04 606 1057 606C1082.96 606 1104 584.957 1104 559C1104 533.043 1082.96 512 1057 512C1031.04 512 1010 533.043 1010 559Z" fill="#EDF0F4"/>
<path d="M1057.24 544.847C1054.92 544.713 1052.93 546.501 1052.79 548.824C1052.79 548.908 1052.79 548.991 1052.79 549.075C1052.79 551.414 1054.68 553.302 1057.02 553.286C1059.36 553.286 1061.25 551.397 1061.23 549.058C1061.23 546.819 1059.48 544.964 1057.24 544.847Z" fill="#0033AD"/>
<path d="M1058.33 529.105C1058.38 528.353 1057.79 527.701 1057.04 527.667C1056.29 527.634 1055.63 528.202 1055.6 528.954C1055.55 529.706 1056.14 530.341 1056.89 530.391C1057.64 530.441 1058.27 529.856 1058.33 529.105Z" fill="#0033AD"/>
<path d="M1081.74 544.58C1082.07 545.248 1082.91 545.515 1083.57 545.181C1084.24 544.847 1084.51 544.012 1084.18 543.343C1083.84 542.675 1083.02 542.407 1082.35 542.742C1081.67 543.076 1081.39 543.895 1081.74 544.58Z" fill="#0033AD"/>
<path d="M1074.27 548.857C1074.79 549.893 1076.06 550.311 1077.09 549.793C1078.13 549.275 1078.55 548.005 1078.03 546.969C1077.51 545.933 1076.24 545.515 1075.2 546.033C1074.17 546.551 1073.75 547.821 1074.27 548.857Z" fill="#0033AD"/>
<path d="M1069.14 534.453C1068.62 535.256 1068.84 536.325 1069.64 536.86C1070.44 537.378 1071.51 537.161 1072.04 536.358C1072.56 535.556 1072.34 534.487 1071.54 533.952C1070.74 533.417 1069.65 533.651 1069.14 534.453Z" fill="#0033AD"/>
<path d="M1059.08 537.009C1059.14 535.839 1058.26 534.854 1057.09 534.787C1055.92 534.72 1054.93 535.606 1054.87 536.775C1054.8 537.945 1055.68 538.931 1056.85 538.998C1058.01 539.065 1059.01 538.179 1059.08 537.009Z" fill="#0033AD"/>
<path d="M1044.92 534.686C1044.49 533.834 1043.45 533.483 1042.58 533.917C1041.73 534.352 1041.38 535.388 1041.81 536.257C1042.25 537.109 1043.28 537.46 1044.15 537.025C1045.01 536.591 1045.36 535.538 1044.92 534.686Z" fill="#0033AD"/>
<path d="M1063.44 542.874C1062.69 544.027 1063 545.564 1064.16 546.3C1065.31 547.052 1066.85 546.734 1067.58 545.581C1068.33 544.428 1068.02 542.891 1066.86 542.155C1065.73 541.403 1064.19 541.721 1063.44 542.874Z" fill="#0033AD"/>
<path d="M1074.43 568.86C1073.8 569.829 1074.07 571.149 1075.04 571.784C1076.01 572.419 1077.33 572.152 1077.96 571.183C1078.6 570.214 1078.33 568.893 1077.36 568.258C1076.37 567.607 1075.07 567.874 1074.43 568.86Z" fill="#0033AD"/>
<path d="M1081.87 573.17C1081.45 573.805 1081.64 574.641 1082.27 575.059C1082.91 575.476 1083.74 575.293 1084.16 574.658C1084.58 574.023 1084.39 573.187 1083.78 572.769C1083.14 572.368 1082.29 572.552 1081.87 573.17Z" fill="#0033AD"/>
<path d="M1061.27 569.177C1061.4 566.854 1059.61 564.849 1057.29 564.732C1054.97 564.598 1052.96 566.386 1052.84 568.709C1052.84 568.792 1052.84 568.876 1052.84 568.943C1052.84 571.265 1054.73 573.154 1057.07 573.154C1059.29 573.17 1061.15 571.416 1061.27 569.177Z" fill="#0033AD"/>
<path d="M1063.74 550.244C1062.32 550.963 1061.42 552.416 1061.42 554.021C1061.42 556.343 1063.3 558.232 1065.64 558.232C1066.3 558.232 1066.95 558.081 1067.55 557.781C1069.64 556.728 1070.47 554.188 1069.42 552.116C1068.35 550.027 1065.81 549.191 1063.74 550.244Z" fill="#0033AD"/>
<path d="M1069.14 583.313C1069.57 584.165 1070.62 584.499 1071.48 584.065C1072.33 583.63 1072.66 582.578 1072.23 581.725C1071.79 580.873 1070.76 580.539 1069.9 580.957C1069.05 581.408 1068.7 582.444 1069.14 583.313Z" fill="#0033AD"/>
<path d="M1067.8 572.618C1067.18 571.398 1065.7 570.897 1064.48 571.515C1063.26 572.134 1062.75 573.621 1063.37 574.841C1063.99 576.06 1065.48 576.562 1066.7 575.943C1067.92 575.325 1068.4 573.838 1067.8 572.618Z" fill="#0033AD"/>
<path d="M1082.5 558.833C1082.45 559.786 1083.19 560.605 1084.14 560.672C1085.09 560.738 1085.91 559.986 1085.98 559.034C1086.03 558.081 1085.31 557.263 1084.36 557.196C1083.39 557.146 1082.57 557.881 1082.5 558.833Z" fill="#0033AD"/>
<path d="M1071.59 558.817C1071.51 560.187 1072.56 561.357 1073.93 561.424C1075.3 561.508 1076.47 560.455 1076.54 559.085C1076.62 557.714 1075.57 556.544 1074.2 556.478C1072.83 556.411 1071.66 557.447 1071.59 558.817Z" fill="#0033AD"/>
<path d="M1046.26 545.382C1046.88 546.601 1048.37 547.103 1049.59 546.484C1050.8 545.866 1051.31 544.379 1050.69 543.159C1050.07 541.939 1048.58 541.438 1047.36 542.056C1046.14 542.674 1045.64 544.162 1046.26 545.382Z" fill="#0033AD"/>
<path d="M1067.97 560.42C1066.01 559.15 1063.4 559.685 1062.13 561.64C1060.86 563.595 1061.4 566.202 1063.35 567.472C1065.31 568.742 1067.92 568.207 1069.19 566.252C1069.64 565.567 1069.87 564.765 1069.87 563.946C1069.87 562.526 1069.15 561.206 1067.97 560.42Z" fill="#0033AD"/>
<path d="M1050.32 567.757C1052.41 566.704 1053.25 564.164 1052.19 562.092C1051.14 560.003 1048.6 559.168 1046.53 560.221C1044.44 561.273 1043.6 563.813 1044.66 565.885C1045.69 567.958 1048.2 568.81 1050.29 567.774C1050.31 567.774 1050.31 567.774 1050.32 567.757Z" fill="#0033AD"/>
<path d="M1050.62 575.126C1051.37 573.973 1051.06 572.436 1049.9 571.7C1048.75 570.948 1047.21 571.266 1046.48 572.419C1045.73 573.572 1046.04 575.109 1047.2 575.845C1048.33 576.596 1049.87 576.279 1050.62 575.126Z" fill="#0033AD"/>
<path d="M1056.96 583.213C1058.13 583.279 1059.11 582.394 1059.18 581.224C1059.24 580.054 1058.36 579.068 1057.19 579.002C1056.02 578.935 1055.03 579.82 1054.97 580.99C1054.9 582.143 1055.8 583.146 1056.96 583.213Z" fill="#0033AD"/>
<path d="M1058.46 589.046C1058.51 588.294 1057.92 587.642 1057.17 587.609C1056.42 587.575 1055.77 588.144 1055.73 588.896C1055.68 589.647 1056.27 590.282 1057.02 590.333C1057.77 590.366 1058.41 589.798 1058.46 589.046Z" fill="#0033AD"/>
<path d="M1044.92 583.548C1045.44 582.746 1045.23 581.677 1044.42 581.142C1043.62 580.624 1042.55 580.841 1042.02 581.643C1041.5 582.445 1041.72 583.515 1042.52 584.05C1043.32 584.584 1044.41 584.35 1044.92 583.548Z" fill="#0033AD"/>
<path d="M1032.19 544.813C1032.61 544.178 1032.42 543.342 1031.81 542.924C1031.17 542.507 1030.34 542.69 1029.92 543.309C1029.5 543.944 1029.68 544.779 1030.3 545.197C1030.92 545.631 1031.77 545.448 1032.19 544.813Z" fill="#0033AD"/>
<path d="M1032.32 573.421C1031.99 572.753 1031.15 572.485 1030.49 572.82C1029.82 573.154 1029.55 573.989 1029.88 574.658C1030.22 575.326 1031.04 575.594 1031.71 575.259C1032.39 574.925 1032.67 574.106 1032.32 573.421Z" fill="#0033AD"/>
<path d="M1046.09 557.58C1048.05 558.85 1050.66 558.316 1051.94 556.36C1053.21 554.405 1052.68 551.799 1050.72 550.512C1048.77 549.225 1046.16 549.777 1044.87 551.732C1044.42 552.417 1044.19 553.219 1044.19 554.038C1044.17 555.475 1044.89 556.795 1046.09 557.58Z" fill="#0033AD"/>
<path d="M1039.63 549.142C1040.26 548.173 1039.99 546.852 1039.02 546.218C1038.06 545.582 1036.74 545.85 1036.1 546.819C1035.47 547.788 1035.73 549.108 1036.7 549.743C1037.67 550.395 1038.99 550.128 1039.63 549.142Z" fill="#0033AD"/>
<path d="M1031.55 558.983C1031.6 558.03 1030.87 557.212 1029.92 557.145C1028.96 557.078 1028.15 557.83 1028.08 558.782C1028.03 559.735 1028.75 560.554 1029.7 560.62C1030.67 560.671 1031.49 559.935 1031.55 558.983Z" fill="#0033AD"/>
<path d="M1042.47 559C1042.55 557.63 1041.5 556.46 1040.13 556.393C1038.76 556.31 1037.59 557.363 1037.52 558.733C1037.45 560.103 1038.49 561.273 1039.86 561.34C1041.21 561.423 1042.4 560.37 1042.47 559Z" fill="#0033AD"/>
<path d="M1039.79 569.142C1039.26 568.106 1037.99 567.689 1036.95 568.223C1035.92 568.758 1035.5 570.028 1036.03 571.064C1036.55 572.1 1037.82 572.518 1038.86 572C1039.89 571.465 1040.33 570.195 1039.79 569.142Z" fill="#0033AD"/>
</g>
<g filter="url(#filter5_b_122_10018)">
<rect x="210.096" y="296.191" width="126" height="126" rx="30" transform="rotate(-135 210.096 296.191)" fill="#8C8C8C" fill-opacity="0.1"/>
</g>
<g clip-path="url(#clip1_122_10018)">
<path d="M878.235 240.702C896.589 259.057 926.348 259.057 944.703 240.702C963.057 222.347 963.057 192.589 944.703 174.234C926.348 155.879 896.589 155.879 878.235 174.234C859.88 192.589 859.88 222.347 878.235 240.702Z" fill="black"/>
<path d="M936.436 202.599L919.188 205.96C918.006 206.182 918.08 207.955 919.336 208.029L932.115 208.915C932.447 208.952 932.595 209.321 932.336 209.58L913.759 228.157C913.5 228.416 913.057 228.194 913.094 227.862L917.157 182.434C917.304 180.956 916.787 179.553 915.716 178.482L914.977 177.743C913.057 175.823 909.881 175.823 907.923 177.78L881.774 203.929C879.817 205.886 879.817 209.063 881.774 211.02C882.993 212.239 884.766 212.756 886.502 212.35L903.75 208.989C904.932 208.767 904.858 206.994 903.602 206.921L890.86 205.997C890.527 205.96 890.38 205.591 890.638 205.332L909.179 186.792C909.437 186.533 909.881 186.755 909.844 187.087L905.781 232.515C905.633 233.993 906.187 235.433 907.221 236.467L907.96 237.206C909.918 239.164 913.094 239.164 915.051 237.206L941.2 211.057C943.158 209.1 943.158 205.923 941.2 203.966C939.944 202.71 938.172 202.193 936.436 202.599Z" fill="white"/>
</g>
<g clip-path="url(#clip2_122_10018)">
<path d="M561 109C586.957 109 608 87.9574 608 62C608 36.0426 586.957 15 561 15C535.043 15 514 36.0426 514 62C514 87.9574 535.043 109 561 109Z" fill="url(#paint0_linear_122_10018)"/>
<path d="M581.568 80.7271L565.675 42.3033C564.779 40.3167 563.446 39.3477 561.69 39.3477H560.284C558.528 39.3477 557.196 40.3167 556.299 42.3033L549.382 59.044H544.149C542.587 59.0562 541.315 60.316 541.303 61.8907V61.9271C541.315 63.4897 542.587 64.7616 544.149 64.7737H546.96L540.358 80.7271C540.237 81.0783 540.164 81.4417 540.164 81.8173C540.164 82.7136 540.443 83.4163 540.939 83.9613C541.436 84.5064 542.151 84.7729 543.047 84.7729C543.641 84.7608 544.21 84.5791 544.682 84.2278C545.191 83.8766 545.542 83.3678 545.821 82.7863L553.089 64.7616H558.128C559.691 64.7495 560.963 63.4897 560.975 61.9149V61.8422C560.963 60.2797 559.691 59.0078 558.128 58.9956H555.439L560.987 45.1742L576.104 82.7742C576.383 83.3556 576.734 83.8644 577.243 84.2157C577.716 84.567 578.297 84.7487 578.879 84.7608C579.775 84.7608 580.477 84.4943 580.986 83.9492C581.495 83.4041 581.761 82.7016 581.761 81.8052C581.774 81.4417 581.713 81.0663 581.568 80.7271Z" fill="white"/>
</g>
<g clip-path="url(#clip3_122_10018)">
<path d="M877.767 877.766C859.412 896.121 859.412 925.879 877.767 944.234C896.121 962.589 925.88 962.589 944.235 944.234C962.589 925.879 962.589 896.121 944.235 877.766C925.88 859.411 896.121 859.411 877.767 877.766Z" fill="#E84142"/>
<path fill-rule="evenodd" clip-rule="evenodd" d="M932.38 936.358C935.52 937.195 937.352 935.363 936.515 932.223L920.604 874.495C919.741 871.329 917.202 870.675 914.899 872.977L904.406 883.471C902.417 885.721 901.632 888.757 902.26 891.688L911.524 926.23C912.492 929.03 914.716 931.255 917.516 932.223L927.905 935.075L932.38 936.358ZM894.252 926.021C897.393 926.858 899.251 925 898.413 921.86L893.127 901.972C892.264 898.858 889.699 898.178 887.422 900.454L872.977 914.899C870.675 917.202 871.355 919.767 874.495 920.604L894.252 926.021Z" fill="white"/>
</g>
<g filter="url(#filter6_b_122_10018)">
<rect x="301.191" y="913.096" width="126" height="126" rx="30" transform="rotate(135 301.191 913.096)" fill="#8C8C8C" fill-opacity="0.1"/>
</g>
<g filter="url(#filter7_b_122_10018)">
<rect x="126.096" y="622.096" width="126" height="126" rx="30" transform="rotate(180 126.096 622.096)" fill="#8C8C8C" fill-opacity="0.1"/>
</g>
<g clip-path="url(#clip4_122_10018)">
<path d="M243.233 240.234C261.588 221.879 261.588 192.121 243.233 173.766C224.879 155.411 195.12 155.411 176.765 173.766C158.411 192.121 158.411 221.879 176.765 240.234C195.12 258.589 224.879 258.589 243.233 240.234Z" fill="#2A5ADA"/>
<path fill-rule="evenodd" clip-rule="evenodd" d="M185.938 191.425L187.666 185.022L194.069 183.294L211.549 178.619L217.952 176.891L240.108 199.047L238.381 205.45L233.807 222.829L232.079 229.232L225.676 230.96L208.094 235.737L201.691 237.464L179.535 215.308L181.263 208.906L185.938 191.425ZM192.341 211.853L205.147 224.659L222.627 219.984L227.303 202.503L214.497 189.697L197.016 194.372L192.341 211.853Z" fill="white"/>
</g>
<g clip-path="url(#clip5_122_10018)">
<path fill-rule="evenodd" clip-rule="evenodd" d="M245.703 880.233C263.981 898.512 263.982 928.422 245.537 946.867C227.093 964.979 197.349 965.145 179.07 946.534C160.957 928.089 160.957 898.511 179.568 879.9C197.846 861.954 227.424 861.955 245.703 880.233Z" fill="black"/>
<path d="M239.959 907.723L226.829 911.24L213.729 914.727L200.629 918.274L198.519 918.801L199.486 917.131L203.501 910.185L207.985 908.983L221.085 905.496L234.185 901.95L228.441 896.205L215.311 899.722L208.512 901.539L211.648 896.059L217.744 885.508L212.586 880.35L206.49 890.901L200.424 901.422L198.87 904.148L189.111 906.756L194.328 911.973L193.888 912.764L188.906 921.38L188.261 922.494L193.273 927.505L193.566 927.447L206.373 924.018L219.502 920.501L232.573 916.984L245.703 913.467L239.959 907.723Z" fill="white"/>
</g>
<g clip-path="url(#clip6_122_10018)">
<path d="M562 1009C536.043 1009 515 1030.04 515 1056C515 1081.96 536.043 1103 562 1103C587.957 1103 609 1081.96 609 1056C609 1030.04 587.957 1009 562 1009Z" fill="white"/>
<path d="M515.001 1056C515.001 1030.05 536.039 1009.01 561.994 1009.01C587.95 1009.01 608.988 1030.05 608.988 1056C608.988 1081.96 587.95 1103 561.994 1103C536.039 1103 515.001 1081.96 515.001 1056Z" fill="white"/>
<path d="M561.994 1103C587.94 1103 609.015 1081.93 608.982 1056.01C608.976 1050.82 608.149 1045.83 606.597 1041.16L592.537 1041.16L592.537 1080.7L561.994 1050.16L531.452 1080.7L531.452 1041.16L517.389 1041.16C515.835 1045.83 515.011 1050.82 515.003 1056.01C514.958 1081.96 536.044 1102.99 561.994 1102.99L561.994 1103Z" fill="#F26822"/>
<path d="M569.018 1043.13L582.347 1056.46L582.347 1031.59L592.538 1031.59L602.154 1031.58C593.906 1018.05 578.999 1009 561.994 1009C544.989 1009 530.082 1018.05 521.832 1031.59L541.644 1031.59L541.644 1056.46L554.974 1043.13L561.996 1036.11L569.018 1043.13Z" fill="#4D4D4D"/>
</g>
<g clip-path="url(#clip7_122_10018)">
<path d="M110 559C110 533.043 88.9574 512 63 512C37.0426 512 16 533.043 16 559C16 584.957 37.0426 606 63 606C88.9574 606 110 584.957 110 559Z" fill="#EDF0F4"/>
<path d="M31.666 558.798C31.7185 571.866 42.2998 582.448 55.3682 582.5C57.9854 582.5 60.5851 582.078 63.0673 581.25C64.7571 580.633 65.667 578.8 65.1446 577.081C64.5071 575.418 62.6899 574.536 60.99 575.066C59.0553 575.768 57.003 576.081 54.9482 575.988C45.5094 575.703 38.0878 567.822 38.3728 558.383C38.6577 548.944 46.5392 541.522 55.9781 541.807C64.8146 542.075 71.9912 549.034 72.5287 557.86C72.5287 557.86 72.7312 561.188 72.9337 562.842C73.0211 563.452 73.1411 564.057 73.2936 564.655C73.3811 564.74 73.3811 564.877 73.2961 564.965L73.2936 564.967C73.2161 565.027 73.1061 565.027 73.0286 564.967L70.2189 564.452L56.1656 561.328C54.4108 560.953 52.6836 562.07 52.3086 563.825C51.9336 565.58 53.051 567.307 54.8058 567.682C54.8058 567.682 89.2042 575.113 89.5167 575.113C91.1889 575.538 92.8888 574.528 93.3137 572.856C93.3187 572.839 93.3237 572.819 93.3262 572.801L93.3262 572.629C93.7587 570.959 92.7538 569.254 91.084 568.824C91.0565 568.817 91.029 568.809 90.999 568.804C90.9465 568.809 90.894 568.809 90.844 568.804C90.439 568.712 85.8621 567.774 85.8621 567.774C82.4075 567.064 79.7603 564.28 79.2254 560.795C79.1154 560.078 78.9129 557.063 78.9129 557.063C77.6156 544.045 66.0095 534.543 52.991 535.843C41.1174 537.028 31.976 546.864 31.666 558.798Z" fill="#1E1E1E"/>
<path d="M86.3181 557.361C85.8732 559.499 87.2455 561.588 89.3802 562.033C89.4003 562.038 89.4203 562.041 89.4403 562.046C91.5625 562.508 93.6598 561.163 94.1222 559.039C94.1222 559.036 94.1222 559.034 94.1247 559.031L94.1247 558.921C94.6275 556.841 93.3473 554.749 91.27 554.249C91.2551 554.244 91.2375 554.242 91.2226 554.237L91.0051 554.237C88.8604 553.869 86.8031 555.239 86.3181 557.361Z" fill="#E6007A"/>
</g>
<defs>
<filter id="filter0_b_122_10018" x="990" y="492" width="134" height="134" filterUnits="userSpaceOnUse" color-interpolation-filters="sRGB">
<feFlood flood-opacity="0" result="BackgroundImageFix"/>
<feGaussianBlur in="BackgroundImageFix" stdDeviation="2"/>
<feComposite in2="SourceAlpha" operator="in" result="effect1_backgroundBlur_122_10018"/>
<feBlend mode="normal" in="SourceGraphic" in2="effect1_backgroundBlur_122_10018" result="shape"/>
</filter>
<filter id="filter1_b_122_10018" x="830.426" y="830.426" width="161.34" height="161.338" filterUnits="userSpaceOnUse" color-interpolation-filters="sRGB">
<feFlood flood-opacity="0" result="BackgroundImageFix"/>
<feGaussianBlur in="BackgroundImageFix" stdDeviation="2"/>
<feComposite in2="SourceAlpha" operator="in" result="effect1_backgroundBlur_122_10018"/>
<feBlend mode="normal" in="SourceGraphic" in2="effect1_backgroundBlur_122_10018" result="shape"/>
</filter>
<filter id="filter2_b_122_10018" x="830.426" y="126.426" width="161.338" height="161.34" filterUnits="userSpaceOnUse" color-interpolation-filters="sRGB">
<feFlood flood-opacity="0" result="BackgroundImageFix"/>
<feGaussianBlur in="BackgroundImageFix" stdDeviation="2"/>
<feComposite in2="SourceAlpha" operator="in" result="effect1_backgroundBlur_122_10018"/>
<feBlend mode="normal" in="SourceGraphic" in2="effect1_backgroundBlur_122_10018" result="shape"/>
</filter>
<filter id="filter3_b_122_10018" x="494" y="-4" width="134" height="134" filterUnits="userSpaceOnUse" color-interpolation-filters="sRGB">
<feFlood flood-opacity="0" result="BackgroundImageFix"/>
<feGaussianBlur in="BackgroundImageFix" stdDeviation="2"/>
<feComposite in2="SourceAlpha" operator="in" result="effect1_backgroundBlur_122_10018"/>
<feBlend mode="normal" in="SourceGraphic" in2="effect1_backgroundBlur_122_10018" result="shape"/>
</filter>
<filter id="filter4_b_122_10018" x="495" y="989" width="134" height="134" filterUnits="userSpaceOnUse" color-interpolation-filters="sRGB">
<feFlood flood-opacity="0" result="BackgroundImageFix"/>
<feGaussianBlur in="BackgroundImageFix" stdDeviation="2"/>
<feComposite in2="SourceAlpha" operator="in" result="effect1_backgroundBlur_122_10018"/>
<feBlend mode="normal" in="SourceGraphic" in2="effect1_backgroundBlur_122_10018" result="shape"/>
</filter>
<filter id="filter5_b_122_10018" x="129.426" y="126.428" width="161.34" height="161.338" filterUnits="userSpaceOnUse" color-interpolation-filters="sRGB">
<feFlood flood-opacity="0" result="BackgroundImageFix"/>
<feGaussianBlur in="BackgroundImageFix" stdDeviation="2"/>
<feComposite in2="SourceAlpha" operator="in" result="effect1_backgroundBlur_122_10018"/>
<feBlend mode="normal" in="SourceGraphic" in2="effect1_backgroundBlur_122_10018" result="shape"/>
</filter>
<filter id="filter6_b_122_10018" x="131.428" y="832.426" width="161.338" height="161.34" filterUnits="userSpaceOnUse" color-interpolation-filters="sRGB">
<feFlood flood-opacity="0" result="BackgroundImageFix"/>
<feGaussianBlur in="BackgroundImageFix" stdDeviation="2"/>
<feComposite in2="SourceAlpha" operator="in" result="effect1_backgroundBlur_122_10018"/>
<feBlend mode="normal" in="SourceGraphic" in2="effect1_backgroundBlur_122_10018" result="shape"/>
</filter>
<filter id="filter7_b_122_10018" x="-3.9043" y="492.096" width="134" height="134" filterUnits="userSpaceOnUse" color-interpolation-filters="sRGB">
<feFlood flood-opacity="0" result="BackgroundImageFix"/>
<feGaussianBlur in="BackgroundImageFix" stdDeviation="2"/>
<feComposite in2="SourceAlpha" operator="in" result="effect1_backgroundBlur_122_10018"/>
<feBlend mode="normal" in="SourceGraphic" in2="effect1_backgroundBlur_122_10018" result="shape"/>
</filter>
<linearGradient id="paint0_linear_122_10018" x1="566.62" y1="-2.45369" x2="496.684" y2="56.3903" gradientUnits="userSpaceOnUse">
<stop stop-color="#B6509E"/>
<stop offset="1" stop-color="#2EBAC6"/>
</linearGradient>
<clipPath id="clip0_122_10018">
<rect width="94" height="94" fill="white" transform="translate(1104 512) rotate(90)"/>
</clipPath>
<clipPath id="clip1_122_10018">
<rect width="94" height="94" fill="white" transform="translate(911.469 141) rotate(45)"/>
</clipPath>
<clipPath id="clip2_122_10018">
<rect width="94" height="94" fill="white" transform="translate(514 15)"/>
</clipPath>
<clipPath id="clip3_122_10018">
<rect width="94" height="94" fill="white" transform="translate(977.469 911) rotate(135)"/>
</clipPath>
<clipPath id="clip4_122_10018">
<rect width="94" height="94" fill="white" transform="translate(143.531 207) rotate(-45)"/>
</clipPath>
<clipPath id="clip5_122_10018">
<rect width="94" height="94" fill="white" transform="translate(212.469 979.936) rotate(-135)"/>
</clipPath>
<clipPath id="clip6_122_10018">
<rect width="94" height="94" fill="white" transform="translate(609 1103) rotate(-180)"/>
</clipPath>
<clipPath id="clip7_122_10018">
<rect width="94" height="94" fill="white" transform="translate(16 606) rotate(-90)"/>
</clipPath>
</defs>
</svg>
