<svg width="96" height="72" viewBox="0 0 96 72" fill="none" xmlns="http://www.w3.org/2000/svg">
<path d="M93.4 32.075L62.9 1.575C60.8 -0.525 57.4 -0.525 55.4 1.575C53.3 3.675 53.3 7.075 55.4 9.075L76.9 30.575H5.3C2.4 30.575 0 32.975 0 35.875C0 38.775 2.4 41.175 5.3 41.175H76.8L55.4 62.675C53.3 64.775 53.3 68.175 55.4 70.175C56.4 71.175 57.8 71.775 59.2 71.775C60.6 71.775 61.9 71.275 63 70.175L93.6 39.575C94.6 38.575 95.2 37.175 95.2 35.775C95 34.475 94.4 33.075 93.4 32.075Z" fill="white"/>
</svg>
