<svg width="300" height="64" viewBox="0 0 300 64" fill="none" xmlns="http://www.w3.org/2000/svg">
<g clip-path="url(#clip0_29_123)">
<path d="M46.073 62.335H60.0778V19.1991H46.073V62.335Z" fill="white"/>
<path d="M62.9773 62.335H76.9847V2.33319H62.9773V62.335Z" fill="white"/>
<path d="M79.884 62.335H93.8914V2.33319H79.884V62.335Z" fill="white"/>
<path d="M230.631 19.2023H244.639V23.6501C246.712 20.2937 249.778 18.9512 254.004 18.7823V33.6343H252.347C247.373 33.6343 244.639 36.4883 244.639 41.7761V62.3359H230.631V19.2023Z" fill="white"/>
<path d="M44.9543 8.22411C44.9543 3.68303 48.5914 0.00017336 53.0757 0.00017336C57.5621 0.00017336 61.1992 3.68303 61.1992 8.22411C61.1992 12.7654 57.5621 16.4482 53.0757 16.4482C48.5914 16.4482 44.9543 12.7654 44.9543 8.22411Z" fill="white"/>
<path d="M227.729 19.2733H213.721V22.4858C211.756 20.3121 207.177 18.5153 203.695 18.5153C191.473 18.5153 183.23 27.938 183.23 41.1986C183.23 54.4569 192.504 63.0166 203.858 63.0166C207.341 63.0166 211.154 61.8407 213.721 59.9114V62.3454H227.729V43.4657C227.729 42.6917 227.725 41.9359 227.709 41.1986C227.725 40.4611 227.729 39.7055 227.729 38.9315V19.2733ZM204.496 48.8038C200.009 48.8038 196.374 45.1186 196.374 40.5777C196.374 36.0365 200.009 32.3536 204.496 32.3536C208.982 32.3536 212.616 36.0365 212.616 40.5777C212.616 45.1186 208.982 48.8038 204.496 48.8038Z" fill="white"/>
<path d="M285.088 2.32988V21.3785C282.353 19.4491 279.204 18.6112 275.389 18.6112C263.705 18.6112 254.588 27.7575 254.588 40.9315C254.588 53.3497 263.374 62.916 274.063 62.916C278.459 62.916 282.02 61.4892 285.336 58.3862V62.3295H299.095V2.32988H285.088ZM276.841 49.0939C272.354 49.0939 268.72 45.4089 268.72 40.8676C268.72 36.3263 272.354 32.6437 276.841 32.6437C281.327 32.6437 284.963 36.3263 284.963 40.8676C284.963 45.4089 281.327 49.0939 276.841 49.0939Z" fill="white"/>
<path d="M120.672 18.6227C116.859 18.6227 113.708 19.463 110.973 21.3899V2.34135H96.9656V62.3431H110.724V58.3978C114.041 61.5029 117.603 62.9297 121.998 62.9297C132.688 62.9297 141.474 53.3633 141.474 40.9454C141.474 27.7692 132.357 18.6227 120.672 18.6227ZM119.181 49.1989C114.694 49.1989 111.057 45.5162 111.057 40.9726C111.057 36.4337 114.694 32.751 119.181 32.751C123.665 32.751 127.302 36.4337 127.302 40.9726C127.302 45.5162 123.665 49.1989 119.181 49.1989Z" fill="white"/>
<path d="M23.7063 18.6227C19.8934 18.6227 16.7425 19.463 14.0073 21.3899V2.34135H0V62.3431H13.7584V58.3978C17.0758 61.5029 20.6376 62.9297 25.0327 62.9297C35.7224 62.9297 44.508 53.3633 44.508 40.9454C44.508 27.7692 35.3937 18.6227 23.7063 18.6227ZM22.2153 49.1989C17.7289 49.1989 14.0917 45.5162 14.0917 40.9726C14.0917 36.4337 17.7289 32.751 22.2153 32.751C26.6994 32.751 30.3365 36.4337 30.3365 40.9726C30.3365 45.5162 26.6994 49.1989 22.2153 49.1989Z" fill="white"/>
<path d="M162.405 18.2563C150.304 18.2563 140.689 28.3275 140.689 40.5766C140.689 52.8304 150.219 62.9014 162.405 62.9014C174.672 62.9014 184.12 52.7457 184.12 40.5766C184.12 28.4119 174.505 18.2563 162.405 18.2563ZM162.405 48.5426C157.918 48.5426 154.283 44.86 154.283 40.3164C154.283 35.7773 157.918 32.0926 162.405 32.0926C166.891 32.0926 170.526 35.7773 170.526 40.3164C170.526 44.86 166.891 48.5426 162.405 48.5426Z" fill="white"/>
</g>
<defs>
<clipPath id="clip0_29_123">
<rect width="299.095" height="63.0162" fill="white"/>
</clipPath>
</defs>
</svg>
