<svg width="77" height="77" viewBox="0 0 77 77" fill="none" xmlns="http://www.w3.org/2000/svg">
<g clip-path="url(#clip0_166_78)">
<path d="M37.6625 0H39.5625C42.3625 0.1 45.0625 0.5 47.7625 1.1C52.6625 2.3 57.3625 4.6 61.4625 7.6C64.9625 10.2 68.0625 13.4 70.4625 17.1C74.0625 22.5 76.2625 28.8 76.7625 35.2C77.2625 41.1 76.3625 47 74.2625 52.5C72.5625 56.7 70.1625 60.6 67.2625 64C64.0625 67.6 60.2625 70.5 56.0625 72.7C52.1625 74.7 47.9625 76 43.5625 76.6C42.0625 76.8 40.4625 76.9 38.9625 77H38.0625C36.5625 76.9 35.1625 76.9 33.6625 76.7C28.7625 76.1 23.9625 74.5 19.6625 72.1C15.7625 69.9 12.2625 67 9.2625 63.6C6.2625 60.1 3.8625 56.1 2.3625 51.8C0.2625 46.1 -0.4375 39.9 0.2625 33.9C0.8625 29.2 2.2625 24.6 4.4625 20.4C6.6625 16.3 9.5625 12.6 13.0625 9.5C16.6625 6.3 20.9625 3.8 25.4625 2.2C29.3625 0.8 33.4625 0.1 37.6625 0ZM36.5625 5.1C31.6625 5.4 26.7625 6.8 22.4625 9.1C18.2625 11.4 14.5625 14.6 11.7625 18.4C8.8625 22.3 6.7625 26.8 5.8625 31.5C4.5625 37.5 5.0625 43.9 7.1625 49.7C8.8625 54.4 11.6625 58.8 15.2625 62.3C18.0625 65.1 21.4625 67.3 25.0625 69C28.2625 70.4 31.6625 71.3 35.1625 71.7C40.9625 72.3 46.8625 71.4 52.1625 69C56.7625 67 60.7625 63.9 64.0625 60.1C67.4625 56.2 69.8625 51.4 71.0625 46.4C72.5625 40.2 72.2625 33.6 70.1625 27.5C68.8625 23.8 66.9625 20.3 64.4625 17.3C61.3625 13.5 57.4625 10.4 53.0625 8.3C47.8625 5.9 42.1625 4.8 36.5625 5.1Z" fill="white"/>
<path d="M27.1612 21.0999C28.3612 20.8999 29.6612 21.1999 30.6612 21.8999C31.6612 22.4999 32.4612 23.4999 32.9612 24.5999C33.3612 25.6999 33.4612 26.9999 33.0612 28.0999C32.7612 29.0999 32.1612 29.9999 31.3612 30.5999C30.4612 31.3999 29.2612 31.7999 28.0612 31.8999C26.9612 31.8999 25.8612 31.5999 24.9612 30.9999C23.9612 30.3999 23.2612 29.3999 22.8612 28.2999C22.3612 26.8999 22.4612 25.2999 23.0612 23.9999C23.6612 22.4999 25.3612 21.2999 27.1612 21.0999Z" fill="white"/>
<path d="M49.4631 21.1012C50.4631 21.0012 51.5631 21.2012 52.4631 21.7012C53.5631 22.3012 54.5631 23.3012 54.9631 24.5012C55.4631 25.7012 55.4631 27.1012 54.9631 28.4012C54.5631 29.5012 53.7631 30.4012 52.7631 31.1012C51.0631 32.2012 48.8631 32.2012 47.1631 31.2012C46.0631 30.6012 45.1631 29.5012 44.7631 28.3012C44.3631 27.2012 44.3631 26.0012 44.6631 25.0012C44.9631 23.9012 45.6631 23.0012 46.4631 22.3012C47.3631 21.6012 48.3631 21.2012 49.4631 21.1012Z" fill="white"/>
<path d="M24.1624 42.2988C34.0624 42.2988 43.9624 42.2988 53.8624 42.2988C55.4624 42.2988 57.0624 42.9988 57.8624 44.2988C58.4624 45.1988 58.7624 46.3988 58.5624 47.3988C57.9624 50.6988 56.3624 53.6988 54.0624 56.1988C51.4624 58.9988 47.9624 60.9988 44.2624 61.8988C39.5624 63.0988 34.4624 62.5988 30.1624 60.5988C26.4624 58.8988 23.1624 55.8988 21.2624 52.2988C20.4624 50.7988 19.9624 49.1988 19.6624 47.5988C19.4624 46.6988 19.6624 45.5988 20.0624 44.7988C20.8624 43.2988 22.4624 42.2988 24.1624 42.2988ZM23.8624 46.7988C24.3624 49.3988 25.6624 51.7988 27.5624 53.6988C29.2624 55.3988 31.4624 56.6988 33.7624 57.4988C36.5624 58.3988 39.4624 58.4988 42.3624 57.9988C45.7624 57.2988 49.0624 55.4988 51.3624 52.7988C52.7624 51.0988 53.8624 48.9988 54.2624 46.7988C54.1624 46.6988 53.9624 46.6988 53.8624 46.6988C43.9624 46.6988 34.1624 46.6988 24.2624 46.6988C24.1624 46.5988 23.9624 46.6988 23.8624 46.7988Z" fill="white"/>
</g>
<defs>
<clipPath id="clip0_166_78">
<rect width="77" height="77" fill="white"/>
</clipPath>
</defs>
</svg>
