<svg width="211" height="211" viewBox="0 0 211 211" fill="none" xmlns="http://www.w3.org/2000/svg">
<g clip-path="url(#clip0_30_148)">
<path d="M210.313 0H0V210.313H210.313V0Z" fill="black"/>
<path d="M117.124 39.5732L115.21 47.2325C114.252 50.1048 112.656 51.7005 110.422 51.7005H101.487C101.487 50.1048 101.487 45.6368 101.487 41.488C101.487 38.9349 101.487 34.1478 101.487 33.5095H112.976V29.6798H101.806V11.4889H108.827C110.742 11.1697 112.656 12.7654 112.976 14.6803L115.21 22.6588C116.167 22.6588 117.124 22.6588 118.082 22.3396V9.25488H88.721V11.4889H92.8698V51.3813H82.019V11.4889H86.487V9.25488H68.6151V11.4889H73.0831V29.6798H59.6792V11.4889H64.1472V9.25488H9.57427L9.25513 22.6588C10.2125 22.6588 11.17 22.9779 12.1274 22.9779L14.3614 14.3611C14.9996 12.1271 15.9571 11.4889 18.5102 11.4889H22.9781V51.3813H16.9145V53.9345H38.2969V51.3813H31.9141V11.4889H36.7012C39.5734 11.4889 39.8926 12.1271 40.5308 14.3611L42.7648 22.9779C43.7222 22.9779 44.6797 22.6588 45.6371 22.6588V11.4889H50.4242V51.3813H45.3179V53.9345H63.828V51.3813H59.3601V33.1904H72.764V51.3813H68.296V53.9345H119.358L119.997 40.2115L117.124 39.5732Z" fill="white"/>
<path d="M44.0414 101.806L40.2117 102.125C37.0203 103.082 33.5098 104.04 29.9993 104.04C19.1485 104.04 10.5317 96.6996 10.5317 81.7001C10.5317 69.8919 17.872 57.7646 30.3184 57.7646C34.7864 57.4454 39.2543 58.4029 43.084 60.3177V72.1259L39.8926 72.7641C37.9778 65.1048 36.0629 60.6368 30.3184 60.6368C22.6591 60.6368 20.1059 69.8919 20.1059 80.4235C20.1059 96.0614 24.2548 100.848 30.3184 100.848C31.9141 100.848 33.5098 100.529 35.1055 99.891V87.4446H30.9567V84.8915H44.0414V101.806Z" fill="white"/>
<path d="M46.5945 100.848H51.3816V60.9555H46.9136V58.4023H65.4237V60.9555H60.3175C60.3175 96.0609 60.3175 100.529 59.9984 100.848H66.3812C68.9343 100.848 70.2108 99.5714 71.1682 96.38L73.7214 88.7206C74.6788 88.7206 75.3171 88.7206 76.5936 89.0398L75.6362 103.401H46.5945V100.848Z" fill="white"/>
<path d="M104.359 81.0619C104.359 63.19 98.9332 60.956 95.4227 60.956C90.3165 60.956 86.4868 65.7431 86.4868 80.7427C86.4868 97.338 91.2739 100.849 95.4227 100.849C99.8907 100.849 104.359 96.6997 104.359 81.0619ZM76.9126 81.381C76.9126 68.6154 82.6571 57.7646 95.4227 57.7646C106.912 57.7646 113.933 66.0623 113.933 80.4236C113.933 93.1892 108.188 104.04 95.4227 104.04C84.572 104.04 76.9126 96.3806 76.9126 81.381Z" fill="white"/>
<path d="M134.039 81.3804H128.932V99.2522C128.932 100.21 128.932 100.848 129.571 100.848H134.039C137.23 100.848 139.783 99.2522 139.783 91.2738C139.783 85.8484 138.507 81.3804 134.039 81.3804ZM128.932 78.8273H134.358C137.549 78.8273 139.145 74.9976 139.145 70.8488C139.145 63.8277 136.592 60.9555 133.4 60.9555H128.932V78.8273ZM134.039 103.082H115.209V100.529H119.997V60.9555H115.209V58.4023H133.72C142.975 58.4023 148.081 62.8703 148.081 69.8914C147.443 74.6785 143.932 78.5082 139.464 79.7847V80.1039C144.889 81.0613 148.719 85.8484 149.038 91.2738C148.719 98.2948 143.294 103.082 134.039 103.082Z" fill="white"/>
<path d="M182.548 89.3589L181.91 103.082H149.677V100.529H155.421V60.9555H151.272V58.4023H180.633V71.4871C179.676 71.4871 178.718 71.4871 177.761 71.8062L175.527 64.1469C175.208 62.232 173.293 60.6363 171.378 60.9555H164.357V79.1464H175.846V82.9761H164.357C164.357 83.6144 164.357 88.4015 164.357 90.9546C164.357 95.1034 164.357 99.5714 164.357 101.167H173.293C175.527 101.167 177.123 99.5714 178.08 96.6991L179.995 89.0398L182.548 89.3589Z" fill="white"/>
<path d="M100.529 107.55H70.2107V109.784C74.9978 109.784 75.6361 111.06 75.6361 113.613V135.953C69.8916 126.379 64.4662 117.124 58.7217 107.55H46.9135V109.784C48.8284 110.422 50.1049 111.699 51.3815 113.294V145.527C51.3815 149.357 49.4667 149.995 47.5518 149.995H44.0413L31.2757 107.55H24.8929C23.2972 114.252 13.4038 144.889 13.4038 144.889C12.7656 147.761 11.1699 149.995 8.29761 149.995V152.229H22.3398V149.995H22.0206C18.1909 149.676 16.9144 149.676 16.9144 146.804C16.9144 145.847 16.9144 144.57 17.2335 143.613L19.4675 135.634H29.9991L34.1479 149.995H29.68V152.229H60.6365V149.995C55.2112 149.995 54.892 148.4 54.892 145.527V118.081C61.594 129.57 68.2959 141.059 75.317 152.549H78.8275V113.613C78.8275 110.741 80.4232 110.103 83.9338 109.784H88.4017V149.995H83.6146V152.229H101.486C114.571 152.229 121.911 142.017 121.911 129.251C122.55 117.762 113.933 108.188 102.763 107.55C101.806 107.55 101.167 107.55 100.529 107.55ZM20.4249 133.081L25.212 116.486L29.9991 133.081H20.4249ZM98.6142 149.995C97.6568 149.995 97.0185 149.357 97.0185 148.081V110.103C106.593 110.103 111.38 116.167 111.38 129.89C111.38 143.613 107.55 149.995 98.6142 149.995Z" fill="white"/>
<path d="M112.656 159.25V156.697H94.7845V159.25H98.9333V199.143H92.2314L79.4658 156.697H73.083C71.4873 163.399 61.594 194.037 61.594 194.037C60.6365 196.59 59.36 198.824 57.126 199.143H53.6155L51.0623 159.25H56.1686V156.697H42.4456L34.1479 180.633C31.2757 172.654 28.4034 164.676 25.8503 156.697H11.1699V159.25C15.6378 159.25 15.957 159.889 15.957 164.357V164.676C15.6378 172.654 14.6804 187.335 14.0421 195.632C14.0421 197.547 12.4464 198.824 8.29761 199.143V201.377H23.9355V199.143C18.1909 199.143 17.5527 197.228 17.5527 195.632C17.5527 194.994 17.8718 188.93 17.8718 183.505C18.1909 175.846 18.5101 170.739 18.5101 162.761V163.08C22.3398 173.931 26.1694 184.782 29.9991 195.313L31.5948 194.675C35.1054 184.462 38.935 174.888 42.7647 164.995L44.3604 199.143H39.8925V201.696H70.2107V199.143C66.3811 198.824 65.1045 198.824 65.1045 195.951C65.1045 194.994 65.1045 193.718 65.4236 192.76L67.6576 184.782H78.5084L82.6572 199.143H77.551V201.696H112.656V199.143H108.508V159.25H112.656ZM68.2959 182.548L73.083 165.952L77.8701 182.548H68.2959Z" fill="white"/>
<path d="M142.336 187.016L139.783 194.675C138.826 197.866 137.549 199.143 134.996 199.143H128.613C128.933 198.824 128.933 194.356 128.933 159.25H133.72V156.697H114.89V159.25H119.358V199.143H114.89V201.696H143.932L144.89 187.335C143.932 187.335 143.294 187.335 142.336 187.016Z" fill="white"/>
<path d="M153.506 181.271C153.187 181.271 152.868 181.271 152.549 181.59C152.549 181.59 152.549 181.59 152.549 181.909C152.549 182.229 152.549 182.548 153.187 182.867H153.506C155.102 182.867 157.017 180.314 158.293 178.399C158.932 177.442 158.932 177.122 159.251 177.122C159.57 177.122 159.889 177.122 160.208 177.761C162.123 180.314 165.314 181.59 168.187 181.271C168.187 180.952 167.548 180.633 167.229 180.314C167.229 180.314 165.634 179.037 167.867 178.399C170.101 177.761 171.059 178.718 172.974 177.122C172.974 176.484 172.016 176.484 172.016 176.484C172.016 176.484 170.74 175.846 174.569 174.569C176.484 173.931 176.484 173.931 176.165 173.612C175.846 173.293 174.889 172.974 176.165 172.016C177.442 171.059 178.399 170.101 178.399 169.463C178.399 168.825 177.442 169.144 176.803 169.463C175.846 169.782 174.889 169.463 174.25 168.825C173.612 167.867 172.974 168.186 172.335 168.825C171.697 169.463 170.101 170.101 169.463 168.825C168.825 167.548 169.144 167.867 170.421 165.633C171.059 164.357 171.697 163.08 171.697 161.804C171.697 161.485 171.697 161.165 170.421 161.804C169.144 162.442 169.144 157.655 169.144 157.017C169.144 157.017 169.144 155.74 168.506 157.017C167.548 158.293 166.272 159.251 164.995 160.208C164.357 160.527 163.08 159.889 163.4 158.931C163.719 157.974 162.761 158.293 162.442 158.931C161.804 161.165 160.846 163.08 160.208 165.314C159.889 165.633 159.57 166.272 158.612 164.995C157.655 163.719 156.698 160.527 155.421 162.123C155.102 161.804 152.868 158.931 151.272 158.931C150.953 159.251 151.272 159.889 151.91 160.208C152.23 160.846 152.23 161.804 151.91 162.442C151.591 163.399 151.591 164.357 151.91 165.314C152.23 165.952 151.91 166.591 150.315 166.91C148.719 167.229 149.038 167.548 149.677 168.186C150.315 168.825 152.23 170.74 152.868 171.378C153.506 172.016 152.868 172.654 151.91 172.974C150.953 173.293 149.996 172.335 149.677 172.654C149.357 172.974 150.315 172.974 150.634 173.293C150.953 173.612 152.549 176.484 154.783 176.165C157.017 175.846 157.336 176.165 157.017 177.122C156.698 178.08 155.102 181.271 153.506 181.271Z" fill="white"/>
</g>
<defs>
<clipPath id="clip0_30_148">
<rect width="210.313" height="210.313" fill="white"/>
</clipPath>
</defs>
</svg>
