<svg width="226" height="122" viewBox="0 0 226 122" fill="none" xmlns="http://www.w3.org/2000/svg">
<path d="M122.121 60.6001C122.121 57.6711 122.105 54.7871 121.668 52.2421H68.776V77.6841H84.476C84.476 80.2271 77.219 85.4551 66.331 85.4551C54.353 85.4551 40.792 76.0381 40.521 60.8871C40.238 45.1901 53.818 34.9241 66.331 35.3711C76.493 35.7341 80.374 38.6481 86.041 44.2261C86.041 44.2261 119.016 44.2511 119.88 44.2511C118.897 40.4721 116.462 34.7621 112.296 28.8511C111.948 28.3591 111.593 27.8631 111.218 27.3711C102.887 16.2821 88.412 5.02406 65.921 5.00006C39.495 4.96306 19.099 22.6301 12.373 44.2611C12.293 44.5221 12.216 44.7831 12.137 45.0461C12.137 45.0581 12.132 45.0761 12.127 45.0861C10.746 49.9261 10 55.0341 10 60.3091C10.05 65.3601 10.706 70.1951 11.898 74.7571C16.142 90.5391 27.188 103.564 41.731 110.55C41.848 110.605 41.964 110.662 42.084 110.714C42.159 110.754 42.236 110.783 42.305 110.818C49.644 114.156 57.888 116.015 66.641 116.084C85.201 115.934 101.617 106.852 111.731 92.9531C111.938 92.6661 122.121 77.9361 122.121 60.6001Z" fill="white"/>
<path d="M205.686 92.7111C205.686 92.7111 215.994 79.5471 216.033 62.0191C216.115 27.5961 192.002 5.38014 158.363 5.33014C138.875 5.30014 120.908 15.6651 111.707 28.1011C103.523 39.1651 102.174 48.3831 102.174 55.0881C101.786 63.4301 102.606 67.3751 102.606 67.3751C103.794 76.0611 107.166 84.6051 112.343 92.0571C122.14 106.164 138.407 116.387 158.556 116.387C171.928 116.389 181.387 110.108 183.096 109.2L186.64 113.304H220.892L205.686 92.7111ZM184.835 68.5561L181.911 64.9631H147.163L161.29 85.0151C146.59 87.8961 132.696 75.4051 132.899 61.0971C133.105 46.4781 144.903 35.6201 159.011 35.7151C174.499 35.8131 189.949 52.6041 184.835 68.5561Z" fill="white"/>
<g opacity="0.5">
<path d="M119.88 44.2664C118.897 40.4874 116.462 34.7704 112.296 28.8624C112.122 28.6114 111.933 28.3604 111.754 28.1074C111.739 28.1274 111.722 28.1474 111.707 28.1674C107.312 34.1054 104.892 39.5024 103.59 44.2624C111.62 44.2644 119.464 44.2664 119.88 44.2664Z" fill="white"/>
<path d="M122.121 60.6002C122.121 57.6712 122.105 54.7872 121.668 52.2422H102.269C102.205 52.2422 102.175 54.2102 102.175 55.1342C101.787 63.4772 102.607 67.3952 102.607 67.3952C103.79 76.0752 107.159 84.6042 112.327 92.0492C114.537 88.5792 122.121 75.5612 122.121 60.6002Z" fill="white"/>
</g>
</svg>
