<svg width="17" height="16" viewBox="0 0 17 16" fill="none" xmlns="http://www.w3.org/2000/svg">
<path fill-rule="evenodd" clip-rule="evenodd" d="M8.21745 0.833984C8.58564 0.833984 8.88411 1.13246 8.88411 1.50065V3.16732C8.88411 3.53551 8.58564 3.83398 8.21745 3.83398C7.84926 3.83398 7.55078 3.53551 7.55078 3.16732V1.50065C7.55078 1.13246 7.84926 0.833984 8.21745 0.833984Z" fill="white"/>
<path fill-rule="evenodd" clip-rule="evenodd" d="M8.21745 11.334C8.58564 11.334 8.88411 11.6325 8.88411 12.0007V14.6673C8.88411 15.0355 8.58564 15.334 8.21745 15.334C7.84926 15.334 7.55078 15.0355 7.55078 14.6673V12.0007C7.55078 11.6325 7.84926 11.334 8.21745 11.334Z" fill="white"/>
<path fill-rule="evenodd" clip-rule="evenodd" d="M1.05078 8.00065C1.05078 7.63246 1.34926 7.33398 1.71745 7.33398H4.05078C4.41897 7.33398 4.71745 7.63246 4.71745 8.00065C4.71745 8.36884 4.41897 8.66732 4.05078 8.66732H1.71745C1.34926 8.66732 1.05078 8.36884 1.05078 8.00065Z" fill="white"/>
<path fill-rule="evenodd" clip-rule="evenodd" d="M12.7168 8.00065C12.7168 7.63246 13.0153 7.33398 13.3835 7.33398H14.3835C14.7517 7.33398 15.0502 7.63246 15.0502 8.00065C15.0502 8.36884 14.7517 8.66732 14.3835 8.66732H13.3835C13.0153 8.66732 12.7168 8.36884 12.7168 8.00065Z" fill="white"/>
<path fill-rule="evenodd" clip-rule="evenodd" d="M11.5801 11.3633C11.8404 11.1029 12.2625 11.1029 12.5229 11.3633L12.9943 11.8347C13.2546 12.095 13.2546 12.5171 12.9943 12.7775C12.7339 13.0378 12.3118 13.0378 12.0515 12.7775L11.5801 12.3061C11.3197 12.0457 11.3197 11.6236 11.5801 11.3633Z" fill="white"/>
<path fill-rule="evenodd" clip-rule="evenodd" d="M13.1317 3.14057C13.392 3.40092 13.392 3.82304 13.1317 4.08338L12.1889 5.0262C11.9285 5.28655 11.5064 5.28655 11.246 5.0262C10.9857 4.76585 10.9857 4.34373 11.246 4.08338L12.1889 3.14057C12.4492 2.88023 12.8713 2.88023 13.1317 3.14057Z" fill="white"/>
<path fill-rule="evenodd" clip-rule="evenodd" d="M5.85572 10.3633C6.11607 10.6236 6.11607 11.0457 5.85572 11.3061L3.9701 13.1917C3.70975 13.4521 3.28764 13.4521 3.02729 13.1917C2.76694 12.9314 2.76694 12.5092 3.02729 12.2489L4.91291 10.3633C5.17326 10.1029 5.59537 10.1029 5.85572 10.3633Z" fill="white"/>
<path fill-rule="evenodd" clip-rule="evenodd" d="M3.16597 3.0019C3.42632 2.74155 3.84843 2.74155 4.10878 3.0019L5.523 4.41611C5.78335 4.67646 5.78335 5.09857 5.523 5.35892C5.26265 5.61927 4.84054 5.61927 4.58019 5.35892L3.16597 3.94471C2.90562 3.68436 2.90562 3.26225 3.16597 3.0019Z" fill="white"/>
</svg>
