<svg width="91" height="91" viewBox="0 0 91 91" fill="none" xmlns="http://www.w3.org/2000/svg">
<g clip-path="url(#clip0_166_71)">
<path d="M45.5 91C36.501 91 27.704 88.3315 20.2216 83.3319C12.7391 78.3323 6.90729 71.2262 3.4635 62.9121C0.0197144 54.5981 -0.881337 45.4495 0.87429 36.6234C2.62992 27.7973 6.96337 19.69 13.3267 13.3267C19.69 6.96337 27.7973 2.62992 36.6234 0.87429C45.4495 -0.881337 54.5981 0.0197141 62.9121 3.4635C71.2262 6.90729 78.3323 12.7391 83.3319 20.2216C88.3315 27.704 91 36.501 91 45.5C90.9868 57.5633 86.1888 69.1287 77.6588 77.6588C69.1287 86.1888 57.5633 90.9868 45.5 91ZM45.5 3.00002C37.0943 3.00002 28.8774 5.4926 21.8883 10.1626C14.8992 14.8325 9.45186 21.4701 6.23514 29.236C3.01842 37.0018 2.17677 45.5472 3.81665 53.7914C5.45652 62.0356 9.50425 69.6083 15.448 75.5521C21.3917 81.4958 28.9645 85.5435 37.2087 87.1834C45.4529 88.8233 53.9982 87.9816 61.7641 84.7649C69.5299 81.5482 76.1675 76.1008 80.8375 69.1118C85.5074 62.1227 88 53.9057 88 45.5C87.9868 34.2324 83.5049 23.43 75.5374 15.4626C67.57 7.49517 56.7677 3.01325 45.5 3.00002Z" fill="white"/>
<path d="M43.2607 86.1807H43.1807C42.1307 86.1207 41.0807 86.0207 40.0407 85.8807C39.8449 85.8549 39.6561 85.7906 39.4851 85.6916C39.3142 85.5926 39.1645 85.4608 39.0446 85.3037C38.9247 85.1467 38.8371 84.9676 38.7866 84.7766C38.7362 84.5855 38.724 84.3865 38.7507 84.1907C38.7753 83.9956 38.8385 83.8074 38.9366 83.637C39.0347 83.4666 39.1658 83.3174 39.3222 83.1983C39.4786 83.0791 39.6572 82.9923 39.8475 82.9429C40.0379 82.8936 40.2361 82.8826 40.4307 82.9107C41.4307 83.0307 42.3807 83.1307 43.3507 83.1807C43.7486 83.1927 44.1253 83.3621 44.3982 83.6519C44.6711 83.9416 44.8177 84.3279 44.8057 84.7257C44.7938 85.1235 44.6243 85.5003 44.3346 85.7732C44.0448 86.0461 43.6586 86.1927 43.2607 86.1807ZM49.3407 86.0607C48.9429 86.0793 48.554 85.9391 48.2596 85.6709C47.9651 85.4027 47.7893 85.0285 47.7707 84.6307C47.7522 84.2329 47.8924 83.844 48.1606 83.5496C48.4287 83.2551 48.8029 83.0793 49.2007 83.0607C50.2007 82.9707 51.1407 82.8407 52.1007 82.6707C52.2977 82.6366 52.4995 82.6416 52.6945 82.6854C52.8896 82.7292 53.0741 82.8111 53.2375 82.9262C53.401 83.0414 53.5401 83.1876 53.6471 83.3565C53.754 83.5254 53.8266 83.7137 53.8607 83.9107C53.8949 84.1077 53.8899 84.3095 53.846 84.5045C53.8022 84.6996 53.7204 84.8841 53.6052 85.0475C53.4901 85.211 53.3439 85.3501 53.175 85.457C53.006 85.564 52.8177 85.6366 52.6207 85.6707C51.6207 85.8607 50.5307 86.0007 49.4907 86.1007L49.3407 86.0607ZM34.3407 84.6207C34.1953 84.6205 34.0506 84.6003 33.9107 84.5607C32.9107 84.2607 31.9107 83.9107 30.9107 83.5607C30.5394 83.4175 30.2402 83.1327 30.0789 82.7688C29.9177 82.405 29.9075 81.992 30.0507 81.6207C30.194 81.2494 30.4788 80.9502 30.8426 80.7889C31.2064 80.6277 31.6194 80.6175 31.9907 80.7607C32.8907 81.1107 33.8207 81.4207 34.7507 81.7007C35.0974 81.8018 35.3959 82.0246 35.5915 82.3281C35.7871 82.6315 35.8667 82.9954 35.8157 83.3529C35.7646 83.7103 35.5863 84.0373 35.3135 84.2739C35.0408 84.5105 34.6918 84.6407 34.3307 84.6407L34.3407 84.6207ZM58.3407 84.1307C57.9848 84.1323 57.6399 84.0073 57.3676 83.778C57.0954 83.5487 56.9136 83.23 56.8547 82.879C56.7958 82.5279 56.8636 82.1674 57.0461 81.8618C57.2286 81.5562 57.5138 81.3254 57.8507 81.2107C58.7707 80.8907 59.6907 80.5407 60.5807 80.1507C60.9334 80.0596 61.3072 80.1 61.6323 80.2642C61.9574 80.4285 62.2116 80.7054 62.3476 81.0434C62.4835 81.3813 62.4918 81.7572 62.3709 82.1008C62.25 82.4444 62.0083 82.7323 61.6907 82.9107C60.6907 83.3207 59.7407 83.7107 58.7407 84.0507C58.5825 84.1026 58.4172 84.1296 58.2507 84.1307H58.3407ZM25.9207 81.0007C25.6577 80.9996 25.3994 80.9308 25.1707 80.8007C24.2507 80.2707 23.3607 79.7007 22.4907 79.1107C22.3216 79.0021 22.1761 78.8606 22.0627 78.6946C21.9494 78.5286 21.8705 78.3415 21.8309 78.1445C21.7913 77.9474 21.7916 77.7444 21.832 77.5475C21.8723 77.3506 21.9519 77.1638 22.0658 76.9983C22.1798 76.8327 22.3258 76.6917 22.4954 76.5837C22.6649 76.4757 22.8543 76.4028 23.0526 76.3695C23.2508 76.3361 23.4537 76.343 23.6492 76.3895C23.8447 76.4361 24.0289 76.5216 24.1907 76.6407C24.9907 77.1907 25.8207 77.7107 26.6707 78.2007C26.9572 78.3656 27.1811 78.6205 27.3078 78.9258C27.4345 79.231 27.4568 79.5696 27.3713 79.8888C27.2858 80.2081 27.0972 80.4902 26.8349 80.6912C26.5726 80.8923 26.2512 81.0011 25.9207 81.0007ZM66.4607 80.1707C66.1435 80.1586 65.8383 80.046 65.589 79.8494C65.3398 79.6527 65.1594 79.382 65.0738 79.0763C64.9882 78.7705 65.0018 78.4455 65.1127 78.148C65.2235 77.8505 65.4259 77.5959 65.6907 77.4207C66.5207 76.9007 67.3307 76.3407 68.1007 75.7607C68.4203 75.522 68.8216 75.4201 69.2164 75.4773C69.6112 75.5345 69.967 75.7461 70.2057 76.0657C70.4444 76.3853 70.5464 76.7866 70.4892 77.1814C70.432 77.5762 70.2203 77.932 69.9007 78.1707C69.0607 78.7907 68.1907 79.4007 67.3007 79.9607C67.048 80.1151 66.7568 80.1948 66.4607 80.1907V80.1707ZM18.6007 75.5807C18.2274 75.576 17.8699 75.4294 17.6007 75.1707C16.8407 74.4507 16.0907 73.7007 15.3907 72.9207C15.1658 72.6211 15.0611 72.2481 15.0973 71.8752C15.1335 71.5023 15.3079 71.1565 15.5863 70.9057C15.8646 70.6549 16.2268 70.5174 16.6014 70.5202C16.9761 70.5229 17.3361 70.6658 17.6107 70.9207C18.2607 71.6407 18.9507 72.3407 19.6607 73.0107C19.8771 73.2152 20.0278 73.4794 20.0935 73.7698C20.1593 74.0602 20.1371 74.3636 20.0299 74.6413C19.9227 74.919 19.7352 75.1586 19.4914 75.3295C19.2475 75.5003 18.9584 75.5947 18.6607 75.6007L18.6007 75.5807ZM73.5407 74.4607C73.1649 74.4496 72.8073 74.2959 72.5407 74.0307C72.2598 73.7495 72.1021 73.3682 72.1021 72.9707C72.1021 72.5732 72.2598 72.192 72.5407 71.9107C73.2207 71.2107 73.8807 70.4807 74.5407 69.7407C74.7967 69.4357 75.1633 69.2449 75.5599 69.2102C75.9566 69.1755 76.3507 69.2998 76.6557 69.5557C76.9607 69.8117 77.1516 70.1783 77.1863 70.5749C77.221 70.9716 77.0967 71.3657 76.8407 71.6707C76.1607 72.4707 75.4507 73.2607 74.7107 74.0107C74.5605 74.1668 74.3779 74.288 74.1757 74.3657C73.9736 74.4435 73.7568 74.4759 73.5407 74.4607ZM12.6907 68.6107C12.4431 68.6117 12.1992 68.551 11.9809 68.434C11.7627 68.317 11.577 68.1475 11.4407 67.9407C10.8607 67.0707 10.3107 66.1607 9.80073 65.2407C9.69096 65.068 9.61769 64.8747 9.58544 64.6726C9.55318 64.4705 9.56261 64.2639 9.61316 64.0656C9.66371 63.8673 9.7543 63.6815 9.87935 63.5195C10.0044 63.3575 10.1613 63.2228 10.3403 63.1237C10.5194 63.0246 10.7168 62.9632 10.9205 62.9433C11.1242 62.9233 11.3298 62.9453 11.5246 63.0078C11.7195 63.0702 11.8995 63.1719 12.0537 63.3066C12.2078 63.4412 12.3327 63.606 12.4207 63.7907C12.9007 64.6407 13.4207 65.4807 13.9407 66.2907C14.0498 66.4549 14.1254 66.6389 14.1634 66.8323C14.2013 67.0256 14.2007 67.2246 14.1617 67.4177C14.1227 67.6109 14.046 67.7945 13.936 67.958C13.8261 68.1215 13.6849 68.2618 13.5207 68.3707C13.272 68.5268 12.9844 68.6099 12.6907 68.6107ZM79.0907 67.2607C78.8152 67.2625 78.5448 67.1862 78.3107 67.0407C77.9839 66.8273 77.7525 66.4957 77.6648 66.1154C77.5772 65.7351 77.6403 65.3356 77.8407 65.0007C78.3507 64.1707 78.8407 63.3107 79.2607 62.4407C79.3494 62.2648 79.4718 62.108 79.621 61.9793C79.7703 61.8507 79.9434 61.7527 80.1305 61.6909C80.3176 61.6292 80.5151 61.6049 80.7116 61.6194C80.9081 61.634 81.0998 61.6871 81.2757 61.7757C81.4517 61.8644 81.6085 61.9868 81.7372 62.136C81.8658 62.2853 81.9638 62.4584 82.0256 62.6455C82.0873 62.8326 82.1116 63.03 82.097 63.2265C82.0825 63.423 82.0294 63.6148 81.9407 63.7907C81.4707 64.7207 80.9407 65.6507 80.4107 66.5607C80.2739 66.776 80.0847 66.9532 79.8609 67.0756C79.6371 67.198 79.3859 67.2617 79.1307 67.2607H79.0907ZM8.62073 60.4907C8.31161 60.4884 8.01064 60.3913 7.75848 60.2124C7.50633 60.0336 7.31513 59.7817 7.21073 59.4907C6.85073 58.4907 6.53073 57.4907 6.21073 56.4907C6.10422 56.1129 6.14906 55.7084 6.33574 55.363C6.52242 55.0177 6.83626 54.7586 7.21073 54.6407C7.58866 54.5288 7.99552 54.5712 8.34226 54.7587C8.68899 54.9461 8.94733 55.2632 9.06073 55.6407C9.32073 56.5707 9.63073 57.5007 9.96073 58.4207C10.0292 58.6052 10.0605 58.8013 10.0528 58.9979C10.0451 59.1945 9.99855 59.3877 9.9158 59.5662C9.83306 59.7447 9.71578 59.905 9.57074 60.038C9.42569 60.1709 9.25575 60.2738 9.07073 60.3407C8.93085 60.4171 8.77846 60.4679 8.62073 60.4907ZM82.9007 59.0007C82.6594 59.0033 82.4211 58.9476 82.2059 58.8383C81.9907 58.7291 81.8051 58.5695 81.6647 58.3732C81.5244 58.1769 81.4335 57.9497 81.3997 57.7107C81.3659 57.4718 81.3903 57.2282 81.4707 57.0007C81.7707 56.0807 82.0307 55.1307 82.2507 54.1907C82.296 53.999 82.3787 53.8181 82.4939 53.6583C82.6091 53.4985 82.7547 53.3629 82.9223 53.2594C83.0899 53.1559 83.2763 53.0864 83.4708 53.0548C83.6652 53.0233 83.864 53.0304 84.0557 53.0757C84.2475 53.121 84.4284 53.2037 84.5882 53.3189C84.748 53.4341 84.8835 53.5797 84.9871 53.7473C85.0906 53.9149 85.1601 54.1013 85.1916 54.2957C85.2231 54.4902 85.216 54.689 85.1707 54.8807C84.9307 55.8807 84.6507 56.8807 84.3307 57.8807C84.2492 58.1989 84.0647 58.4813 83.8061 58.6838C83.5475 58.8864 83.2292 58.9978 82.9007 59.0007ZM6.51073 51.6307C6.1424 51.6306 5.78698 51.495 5.51219 51.2498C5.23741 51.0045 5.06248 50.6667 5.02073 50.3007C4.90073 49.3007 4.82073 48.2107 4.77073 47.1507C4.75482 46.7529 4.89759 46.365 5.16765 46.0725C5.4377 45.7799 5.81291 45.6066 6.21073 45.5907C6.60856 45.5748 6.99641 45.7176 7.28897 45.9876C7.58152 46.2577 7.75482 46.6329 7.77073 47.0307C7.77073 48.0307 7.89073 49.0307 8.00073 49.9507C8.02448 50.1464 8.00943 50.3449 7.95643 50.5347C7.90344 50.7246 7.81354 50.9021 7.69187 51.0572C7.57021 51.2123 7.41917 51.3419 7.24738 51.4386C7.0756 51.5353 6.88645 51.5972 6.69073 51.6207L6.51073 51.6307ZM84.6907 50.0007H84.5707C84.1753 49.9675 83.8088 49.78 83.5506 49.4787C83.2923 49.1774 83.1631 48.7866 83.1907 48.3907C83.2607 47.3907 83.3007 46.4407 83.3007 45.4607V45.2907C83.3007 44.8929 83.4588 44.5114 83.7401 44.2301C84.0214 43.9488 84.4029 43.7907 84.8007 43.7907C85.1986 43.7907 85.5801 43.9488 85.8614 44.2301C86.1427 44.5114 86.3007 44.8929 86.3007 45.2907V45.4607C86.3007 46.5107 86.3007 47.5707 86.1807 48.6207C86.1506 48.9957 85.9808 49.3456 85.7048 49.6012C85.4288 49.8568 85.0669 49.9994 84.6907 50.0007ZM6.49073 42.5107H6.32073C6.12551 42.4896 5.93639 42.4301 5.76424 42.3356C5.5921 42.2411 5.44033 42.1135 5.31766 41.9602C5.19499 41.8068 5.10384 41.6308 5.04945 41.4421C4.99506 41.2534 4.9785 41.0558 5.00073 40.8607C5.12073 39.8107 5.28073 38.7607 5.48073 37.7307C5.5077 37.5281 5.57582 37.333 5.68091 37.1577C5.78599 36.9823 5.92582 36.8302 6.09181 36.7108C6.2578 36.5915 6.44644 36.5073 6.64614 36.4635C6.84585 36.4196 7.0524 36.4171 7.25312 36.456C7.45384 36.4949 7.64449 36.5745 7.81335 36.6898C7.98221 36.805 8.12572 36.9536 8.23507 37.1264C8.34442 37.2991 8.41729 37.4924 8.44922 37.6944C8.48115 37.8963 8.47145 38.1027 8.42073 38.3007C8.24073 39.3007 8.09073 40.2307 7.98073 41.1907C7.93672 41.5549 7.7608 41.8903 7.48624 42.1335C7.21169 42.3767 6.85753 42.5109 6.49073 42.5107ZM84.2707 40.7507C83.9132 40.7502 83.5675 40.6219 83.2962 40.3891C83.0248 40.1562 82.8456 39.8341 82.7907 39.4807C82.6407 38.5307 82.4407 37.5607 82.2207 36.6207C82.1614 36.4255 82.1426 36.2203 82.1653 36.0176C82.1881 35.8148 82.2519 35.6189 82.353 35.4416C82.454 35.2644 82.5902 35.1097 82.7531 34.9869C82.916 34.8641 83.1022 34.7758 83.3004 34.7275C83.4986 34.6791 83.7046 34.6717 83.9057 34.7057C84.1069 34.7396 84.299 34.8143 84.4703 34.925C84.6417 35.0358 84.7886 35.1803 84.9021 35.3498C85.0157 35.5193 85.0935 35.7102 85.1307 35.9107C85.3807 36.9107 85.5907 37.9807 85.7507 39.0107C85.7821 39.2058 85.7746 39.4051 85.7286 39.5973C85.6827 39.7894 85.5993 39.9706 85.4831 40.1305C85.367 40.2903 85.2204 40.4256 85.0518 40.5286C84.8832 40.6316 84.6959 40.7003 84.5007 40.7307L84.2707 40.7507ZM8.56073 33.6407C8.38684 33.6401 8.21433 33.6097 8.05073 33.5507C7.67688 33.4153 7.37207 33.137 7.20331 32.777C7.03455 32.417 7.01564 32.0047 7.15073 31.6307C7.50073 30.6307 7.90073 29.6307 8.34073 28.7007C8.4179 28.515 8.53161 28.3468 8.67512 28.2059C8.81862 28.065 8.98898 27.9545 9.17607 27.8808C9.36316 27.807 9.56316 27.7717 9.76417 27.7768C9.96519 27.782 10.1631 27.8275 10.3462 27.9106C10.5293 27.9938 10.6938 28.1129 10.8299 28.2609C10.966 28.4089 11.071 28.5828 11.1386 28.7722C11.2062 28.9616 11.235 29.1626 11.2234 29.3633C11.2117 29.5641 11.1598 29.7604 11.0707 29.9407C10.6707 30.8307 10.3007 31.7407 9.97073 32.6507C9.86717 32.9414 9.6759 33.1928 9.42332 33.3702C9.17075 33.5475 8.86934 33.642 8.56073 33.6407ZM81.8007 32.0007C81.5029 32.0012 81.2116 31.913 80.9641 31.7474C80.7165 31.5818 80.5239 31.3462 80.4107 31.0707C80.0407 30.1807 79.6307 29.2807 79.1907 28.4207C79.0975 28.2454 79.0397 28.0534 79.0207 27.8558C79.0016 27.6581 79.0217 27.4587 79.0797 27.2688C79.1969 26.8853 79.4617 26.564 79.8157 26.3757C80.1698 26.1874 80.5842 26.1475 80.9677 26.2647C81.3512 26.3819 81.6724 26.6467 81.8607 27.0007C82.3407 27.9307 82.7807 28.9007 83.1807 29.8707C83.2625 30.0548 83.3063 30.2534 83.3096 30.4547C83.313 30.656 83.2757 30.856 83.2001 31.0426C83.1246 31.2292 83.0122 31.3988 82.8697 31.541C82.7272 31.6833 82.5575 31.7954 82.3707 31.8707C82.1916 31.9526 81.9976 31.9968 81.8007 32.0007ZM12.6907 25.4907C12.3984 25.4926 12.1123 25.4054 11.8707 25.2407C11.7053 25.1343 11.5625 24.9961 11.4507 24.8342C11.3389 24.6723 11.2603 24.4899 11.2194 24.2974C11.1785 24.105 11.1761 23.9063 11.2124 23.7129C11.2487 23.5196 11.3229 23.3353 11.4307 23.1707C12.0107 22.2907 12.6207 21.4207 13.2607 20.5907C13.5047 20.2751 13.8641 20.0694 14.2598 20.0187C14.6555 19.9681 15.0551 20.0767 15.3707 20.3207C15.6863 20.5647 15.8921 20.9241 15.9427 21.3198C15.9934 21.7155 15.8847 22.1151 15.6407 22.4307C15.0507 23.2007 14.4707 24.0007 13.9407 24.8107C13.805 25.0187 13.6197 25.1897 13.4015 25.3084C13.1833 25.4271 12.9391 25.4897 12.6907 25.4907ZM77.3607 24.0007C77.1231 24 76.8889 23.9435 76.677 23.8358C76.4651 23.7281 76.2815 23.5723 76.1407 23.3807C75.5707 22.5807 74.9607 21.8107 74.3407 21.0707C74.2134 20.9204 74.1168 20.7464 74.0567 20.5587C73.9965 20.3711 73.974 20.1734 73.9902 19.977C74.0065 19.7806 74.0612 19.5893 74.1514 19.4141C74.2416 19.2389 74.3654 19.0831 74.5157 18.9557C74.8194 18.6985 75.2128 18.5724 75.6095 18.6052C75.8059 18.6214 75.9971 18.6762 76.1724 18.7664C76.3476 18.8566 76.5034 18.9804 76.6307 19.1307C77.3007 19.9307 77.9607 20.7607 78.5707 21.6207C78.6871 21.7793 78.7709 21.9594 78.8173 22.1506C78.8637 22.3417 78.8718 22.5402 78.8411 22.7345C78.8104 22.9288 78.7416 23.1151 78.6385 23.2826C78.5355 23.4502 78.4003 23.5957 78.2407 23.7107C77.9863 23.8997 77.6777 24.0014 77.3607 24.0007ZM18.4807 18.5007C18.1831 18.4947 17.8939 18.4003 17.6501 18.2295C17.4063 18.0586 17.2188 17.8191 17.1116 17.5413C17.0043 17.2636 16.9822 16.9602 17.0479 16.6698C17.1137 16.3794 17.2643 16.1152 17.4807 15.9107C18.2407 15.1807 19.0407 14.4807 19.8507 13.8207C19.9987 13.6645 20.1786 13.5419 20.3781 13.4614C20.5776 13.3808 20.7922 13.3441 21.0071 13.3538C21.2221 13.3634 21.4325 13.4192 21.6239 13.5174C21.8154 13.6156 21.9836 13.7538 22.1169 13.9226C22.2503 14.0915 22.3458 14.2871 22.3968 14.4961C22.4479 14.7052 22.4535 14.9227 22.413 15.1341C22.3726 15.3454 22.2872 15.5456 22.1625 15.721C22.0379 15.8964 21.877 16.043 21.6907 16.1507C20.9407 16.7607 20.2007 17.4107 19.4907 18.0807C19.2201 18.3446 18.8587 18.4948 18.4807 18.5007ZM71.2107 17.3107C70.8443 17.3087 70.4903 17.1777 70.2107 16.9407C69.4907 16.3007 68.7207 15.6907 67.9307 15.1107C67.6131 14.8719 67.4025 14.5175 67.3444 14.1244C67.2864 13.7313 67.3857 13.3311 67.6207 13.0107C67.8557 12.6973 68.2047 12.4891 68.5921 12.4311C68.9795 12.373 69.3742 12.4699 69.6907 12.7007C70.5407 13.3207 71.3607 13.9907 72.1507 14.7007C72.3855 14.9014 72.5526 15.1696 72.6292 15.4688C72.7058 15.768 72.6882 16.0835 72.5788 16.3723C72.4694 16.6611 72.2736 16.9091 72.018 17.0824C71.7624 17.2557 71.4595 17.3459 71.1507 17.3407L71.2107 17.3107ZM25.7707 13.0007C25.4394 13.0033 25.1165 12.8961 24.8524 12.6958C24.5884 12.4956 24.3982 12.2135 24.3114 11.8937C24.2246 11.5739 24.2461 11.2343 24.3726 10.9281C24.4991 10.6218 24.7235 10.366 25.0107 10.2007C25.9307 9.6707 26.8607 9.2007 27.8007 8.7207C27.978 8.63468 28.1705 8.58443 28.3672 8.5728C28.5639 8.56118 28.761 8.58841 28.9472 8.65295C29.1334 8.71748 29.305 8.81806 29.4523 8.94893C29.5996 9.07981 29.7197 9.23841 29.8057 9.4157C29.8918 9.59298 29.942 9.78547 29.9536 9.98218C29.9653 10.1789 29.938 10.376 29.8735 10.5622C29.8089 10.7483 29.7084 10.92 29.5775 11.0673C29.4466 11.2146 29.288 11.3347 29.1107 11.4207C28.2407 11.8407 27.3707 12.3007 26.5207 12.8007C26.2921 12.9308 26.0338 12.9996 25.7707 13.0007ZM63.6907 12.1707C63.4468 12.1738 63.2061 12.1154 62.9907 12.0007C62.1407 11.5507 61.2507 11.1307 60.3507 10.7507C60.1529 10.6863 59.9707 10.5815 59.8156 10.4428C59.6605 10.3042 59.5359 10.1348 59.4498 9.94544C59.3637 9.75608 59.3179 9.55088 59.3153 9.34287C59.3128 9.13487 59.3535 8.9286 59.435 8.73718C59.5164 8.54577 59.6368 8.37338 59.7884 8.23098C59.94 8.08858 60.1196 7.97927 60.3158 7.91001C60.5119 7.84075 60.7204 7.81305 60.9278 7.82866C61.1352 7.84427 61.3372 7.90286 61.5207 8.0007C62.5207 8.4107 63.4507 8.8707 64.3707 9.3507C64.6623 9.50788 64.8936 9.75714 65.0286 10.0596C65.1636 10.3621 65.1947 10.7007 65.1171 11.0227C65.0395 11.3447 64.8574 11.6319 64.5994 11.8396C64.3414 12.0473 64.0219 12.1637 63.6907 12.1707ZM34.1207 9.3907C33.7645 9.38539 33.4218 9.25348 33.154 9.01858C32.8862 8.78368 32.7107 8.46113 32.659 8.10867C32.6073 7.7562 32.6827 7.39683 32.8717 7.09488C33.0607 6.79294 33.3511 6.56813 33.6907 6.4607C34.6907 6.1607 35.6907 5.8907 36.6907 5.6607C37.0793 5.5745 37.4861 5.64618 37.8218 5.85997C38.1575 6.07377 38.3945 6.41215 38.4807 6.8007C38.5669 7.18924 38.4952 7.59611 38.2815 7.9318C38.0677 8.26749 37.7293 8.5045 37.3407 8.5907C36.3407 8.8007 35.4307 9.0507 34.5007 9.3307C34.377 9.366 34.2494 9.38615 34.1207 9.3907ZM55.1207 8.9207C54.9991 8.91878 54.8782 8.90199 54.7607 8.8707C53.7607 8.6307 52.8507 8.4307 51.8907 8.2607C51.6868 8.23885 51.4895 8.17541 51.311 8.07429C51.1325 7.97317 50.9767 7.83651 50.8531 7.67277C50.7296 7.50904 50.6409 7.3217 50.5926 7.12233C50.5443 6.92297 50.5374 6.71582 50.5724 6.51369C50.6073 6.31156 50.6834 6.11875 50.7958 5.94717C50.9082 5.77559 51.0546 5.62889 51.226 5.51614C51.3973 5.40339 51.59 5.32698 51.7921 5.29165C51.9941 5.25631 52.2013 5.26279 52.4007 5.3107C53.4007 5.4907 54.4707 5.7107 55.4907 5.9607C55.6877 5.98499 55.878 6.04785 56.0507 6.14567C56.2234 6.2435 56.3751 6.37438 56.4972 6.53085C56.6193 6.68732 56.7094 6.8663 56.7623 7.05759C56.8153 7.24887 56.83 7.44871 56.8057 7.6457C56.7814 7.84268 56.7186 8.03295 56.6208 8.20564C56.5229 8.37833 56.392 8.53006 56.2356 8.65217C56.0791 8.77428 55.9001 8.86437 55.7088 8.91731C55.5176 8.97025 55.3177 8.98499 55.1207 8.9607V8.9207ZM43.0907 7.7907C42.6929 7.80263 42.3066 7.65604 42.0169 7.38318C41.7271 7.11031 41.5577 6.73352 41.5457 6.3357C41.5338 5.93787 41.6804 5.5516 41.9533 5.26186C42.2261 4.97211 42.6029 4.80263 43.0007 4.7907C43.8307 4.7907 44.6707 4.7307 45.5007 4.7207H46.1507C46.5477 4.72858 46.9256 4.89251 47.2026 5.177C47.4796 5.46149 47.6334 5.84364 47.6307 6.2407C47.6322 6.43886 47.5936 6.63527 47.5172 6.81813C47.4408 7.00099 47.3283 7.16652 47.1863 7.30476C47.0443 7.44301 46.8758 7.55112 46.691 7.6226C46.5062 7.69407 46.3088 7.72744 46.1107 7.7207H45.5007C44.7607 7.7207 43.9507 7.7207 43.1807 7.7907H43.0907Z" fill="white"/>
<path d="M47.9509 60.0499V66.7099C47.9509 67.1829 47.7637 67.6367 47.4301 67.9721C47.0966 68.3075 46.6439 68.4973 46.1709 68.4999C45.6961 68.4999 45.2408 68.3113 44.9051 67.9756C44.5694 67.64 44.3809 67.1847 44.3809 66.7099V59.9199" fill="white"/>
<path d="M44.3793 29.49V22.83C44.374 22.5916 44.4165 22.3545 44.504 22.1327C44.5916 21.9109 44.7226 21.7088 44.8894 21.5383C45.0561 21.3679 45.2552 21.2324 45.4751 21.14C45.6949 21.0475 45.9309 20.9999 46.1693 21C46.6423 21.0026 47.0951 21.1924 47.4286 21.5278C47.7621 21.8632 47.9493 22.317 47.9493 22.79V29.57" fill="white"/>
<path d="M55.6901 34.7009C53.0709 32.2539 49.6435 30.8552 46.0601 30.7709C42.2245 30.8384 38.5666 32.3996 35.8643 35.1224C33.162 37.8453 31.6286 41.5149 31.5901 45.3509C31.6123 47.1848 31.9995 48.9959 32.7292 50.6784C33.4589 52.361 34.5164 53.8814 35.8401 55.1509C38.5697 57.8201 42.195 59.3778 46.0101 59.5209C49.4819 59.4005 52.813 58.1188 55.4701 55.8809C56.2459 55.2355 57.116 54.7128 58.0501 54.3309C59.6901 54.3309 56.6901 57.4609 56.6901 57.4609C53.7339 59.9877 49.9789 61.387 46.0901 61.4109C37.2701 61.4109 29.5801 54.0509 29.5801 45.1909C29.638 40.8416 31.4078 36.6905 34.5058 33.6374C37.6039 30.5842 41.7804 28.8752 46.1301 28.8809C50.0403 28.8913 53.806 30.3604 56.6901 33.0009C56.6901 33.0009 58.1001 34.4009 58.1001 34.7309C58.0501 36.3609 55.8801 34.9209 55.6901 34.7009Z" fill="white"/>
<path d="M46.0898 61.9109C41.637 61.8859 37.3696 60.1251 34.1949 57.0027C31.0202 53.8803 29.1887 49.6426 29.0898 45.1909C29.1398 40.7152 30.953 36.4398 34.1357 33.2927C37.3184 30.1456 41.6139 28.3806 46.0898 28.3809C50.1094 28.398 53.9781 29.9134 56.9398 32.6309C58.5098 34.1909 58.5098 34.5709 58.5098 34.7309C58.5363 34.9706 58.488 35.2126 58.3717 35.4238C58.2553 35.635 58.0766 35.8052 57.8598 35.9109C56.8598 36.3409 55.2698 35.0809 55.2598 35.0609C52.7336 32.6996 49.4268 31.3506 45.9698 31.2709C42.2793 31.3514 38.7655 32.8669 36.1741 35.4957C33.5826 38.1245 32.1176 41.6596 32.0898 45.3509C32.1085 47.1184 32.4809 48.8643 33.185 50.4856C33.8892 52.1069 34.9109 53.5707 36.1898 54.7909C38.8247 57.368 42.3265 58.8693 46.0098 59.0009C49.3611 58.8811 52.5755 57.6418 55.1398 55.4809C55.1398 55.4809 57.2698 53.8109 58.0498 53.8109C58.2372 53.7885 58.4268 53.827 58.5907 53.9206C58.7545 54.0143 58.8839 54.1581 58.9598 54.3309C59.3198 55.1609 58.0898 56.6709 56.9598 57.7909C53.9332 60.3989 50.0847 61.8575 46.0898 61.9109ZM46.0898 29.3809C43.5402 29.3656 41.0249 29.9687 38.7595 31.1385C36.4941 32.3083 34.5461 34.01 33.0824 36.0977C31.6188 38.1854 30.6831 40.5968 30.3557 43.1253C30.0283 45.6539 30.3188 48.2241 31.2024 50.6157C32.086 53.0074 33.5363 55.1491 35.429 56.8574C37.3217 58.5657 39.6004 59.7896 42.0698 60.4243C44.5392 61.0589 47.1256 61.0853 49.6075 60.5013C52.0893 59.9172 54.3926 58.7401 56.3198 57.0709C56.9803 56.4263 57.543 55.6884 57.9898 54.8809C57.2114 55.2552 56.477 55.7147 55.7998 56.2509C53.0502 58.5649 49.6017 59.8858 46.0098 60.0009C42.0665 59.8658 38.3154 58.2648 35.4898 55.5109C34.1147 54.1973 33.0169 52.6214 32.2612 50.8764C31.5054 49.1313 31.1071 47.2525 31.0898 45.3509C31.1204 41.3884 32.6972 37.5946 35.4842 34.7778C38.2711 31.9609 42.0479 30.3438 46.0098 30.2709C49.7314 30.346 53.2935 31.7958 56.0098 34.3409C56.2998 34.6009 57.2998 35.1109 57.5298 34.9909C57.5506 34.9055 57.5506 34.8163 57.5298 34.7309C57.1346 34.252 56.714 33.7947 56.2698 33.3609C53.5027 30.8188 49.8873 29.3997 46.1298 29.3809H46.0898Z" fill="white"/>
</g>
<defs>
<clipPath id="clip0_166_71">
<rect width="91" height="91" fill="white"/>
</clipPath>
</defs>
</svg>
