<svg width="1540" height="466" viewBox="0 0 1540 466" fill="none" xmlns="http://www.w3.org/2000/svg">
<path d="M1517.81 152.877L1515.68 162.397L1496.14 167.664C1492.05 169.235 1488.53 171.985 1486.01 175.564L1395.97 289.502L1362.45 400.908C1360.63 406.681 1362.96 410.124 1366.7 411.036L1390.2 416.809L1387.06 426.329H1269.98L1273.12 416.809L1295.1 411.542C1297.93 410.975 1300.51 409.554 1302.5 407.471C1304.49 405.388 1305.8 402.744 1306.24 399.895L1339.76 287.071L1310.39 176.88C1309.08 171.614 1307.46 167.36 1301.99 165.74L1288.21 161.992L1290.34 152.472H1390.2L1388.07 161.992L1371.16 166.752C1365.08 168.373 1363.77 171.513 1365.39 176.88L1389.39 270.36L1460.28 175.766C1461.48 174.25 1462.22 172.422 1462.41 170.5C1462.3 169.409 1461.82 168.391 1461.04 167.616C1460.27 166.841 1459.25 166.357 1458.16 166.246L1439.12 161.486L1441.75 151.966L1517.81 152.877Z" fill="white"/>
<path d="M1284.97 215.265H1271.4L1259.75 179.615C1259.54 178.296 1259.08 177.032 1258.38 175.895C1257.68 174.758 1256.76 173.771 1255.68 172.99C1254.6 172.208 1253.37 171.649 1252.07 171.343C1250.77 171.038 1249.42 170.992 1248.11 171.209H1218.74L1150.07 401.313C1148.25 407.086 1150.07 410.529 1155.34 411.441L1174.38 416.707L1171.24 426.227H1056.79L1059.93 416.707L1080.19 411.947C1089.2 409.82 1091.02 407.187 1093.35 399.287L1161.51 170.702H1127.38C1124.79 170.891 1122.28 171.71 1120.08 173.086C1117.87 174.462 1116.03 176.356 1114.72 178.602L1091.02 212.429H1077.86L1099.23 145.99H1107.63C1108.34 148.087 1109.71 149.895 1111.54 151.138C1113.37 152.382 1115.55 152.992 1117.76 152.877H1260.67C1263.39 153.289 1266.18 152.849 1268.64 151.616C1271.11 150.383 1273.13 148.418 1274.44 145.99H1283.45L1284.97 215.265ZM1072.9 211.821H1059.73L1047.07 177.69C1046.36 175.594 1044.99 173.786 1043.16 172.543C1041.34 171.299 1039.15 170.688 1036.94 170.803H982.251L951.361 274.918H1002.91C1008.18 274.918 1011.32 272.284 1015.07 267.018L1029.35 246.155H1042.51L1018.21 329.101H1005.04L1005.55 299.731C1005.55 294.464 1002.41 292.844 997.139 292.844H946.5L911.66 407.896H986.708C990.352 408.455 994.081 407.961 997.455 406.472C1000.83 404.983 1003.71 402.56 1005.75 399.49L1035.62 362.219H1049.91L1019.52 434.127H1010C1007.37 428.861 1003.62 426.734 994.101 426.734H821.928L825.067 417.214L845.323 411.947C847.956 411.191 850.313 409.689 852.111 407.622C853.908 405.556 855.068 403.012 855.451 400.3L921.484 177.488C922.253 175.875 922.355 174.023 921.767 172.336C921.179 170.648 919.949 169.26 918.345 168.474L899.811 162.701L902.444 153.181H1050.92C1053.32 153.277 1055.69 152.678 1057.76 151.457C1059.82 150.235 1061.49 148.442 1062.56 146.294H1070.97L1072.9 211.821Z" fill="white"/>
<path d="M1515.08 80.767C1381.15 109.348 1244.58 123.775 1107.63 123.81C783.543 123.81 555.667 79.6529 459.453 56.6628L54.0353 441.115L21.0186 445.369L140.223 82.59C104.213 97.0394 66.4438 106.643 27.9055 111.151C18.6892 112.163 18.3854 106.897 22.639 104.567C35.2163 98.3669 46.4375 89.7311 55.6518 79.1607C64.8661 68.5904 71.8901 56.2959 76.3166 42.9902C134.754 57.2704 178.81 46.1298 232.184 26.5831L124.626 331.735L411.852 20C585.311 56.0099 761.95 74.5017 939.107 75.1967C1078.87 75.1967 1201.42 53.2193 1264.62 27.3933C1353.44 80.2606 1454.82 75.7031 1512.95 72.0571C1521.36 71.5507 1522.47 79.4504 1515.08 81.0708" fill="white"/>
<path d="M890.29 152.877L887.657 162.397L865.173 168.778C863.14 169.382 861.32 170.549 859.922 172.144C858.524 173.739 857.606 175.697 857.274 177.792L791.24 398.882C789.417 405.465 787.797 409.719 796 412.048L811.901 416.809L808.761 426.329H702.926L706.065 416.809L721.358 412.048C730.068 409.415 732.701 406.276 734.524 399.389L800.051 177.184C801.368 172.424 800.051 169.284 796.304 168.17L778.884 162.397L781.517 152.877H890.29ZM732.6 220.531C732.6 262.055 699.583 298.212 645.906 296.085C635.457 295.724 625.088 294.126 615.016 291.325C615.016 341.964 630.613 393.818 660.692 393.818C679.226 393.818 684.695 378.222 687.329 365.055C687.835 362.928 689.456 361.308 692.089 364.043C696.364 368.187 699.739 373.167 702.004 378.674C704.269 384.18 705.376 390.094 705.255 396.047C705.255 427.24 684.999 441.217 655.831 441.217C580.581 441.217 577.138 332.849 589.291 266.309C590.101 262.562 591.418 262.055 594.051 263.676C604.988 270.089 617.54 273.218 630.208 272.69C654.514 272.69 677.505 253.447 677.505 218.506C677.505 183.565 648.539 161.79 605.698 161.79L534.803 399.794C534.155 401.65 533.813 403.6 533.791 405.567C533.721 406.259 533.789 406.958 533.991 407.624C534.193 408.29 534.525 408.909 534.967 409.445C535.41 409.982 535.954 410.426 536.569 410.751C537.185 411.076 537.858 411.276 538.551 411.34L558.806 416.606L555.667 426.126H450.135L453.274 416.606L469.175 411.846C474.239 410.225 476.265 407.39 478.695 399.693L548.881 161.79C518.498 168.17 503.711 179.513 503.711 196.933C503.24 203.695 505.099 210.415 508.977 215.974C510.025 217.531 510.589 219.363 510.598 221.24C510.598 225.19 507.154 228.633 497.432 228.633C493.28 228.921 489.115 228.297 485.23 226.806C481.344 225.315 477.831 222.993 474.937 220.003C472.043 217.012 469.837 213.425 468.475 209.492C467.112 205.56 466.625 201.377 467.048 197.237C467.048 184.071 475.252 139.407 591.519 139.407C690.063 139.407 732.6 171.411 732.6 220.43" fill="white"/>
<path d="M391.191 201.288L282.114 335.684H378.835L391.191 201.288ZM447.501 417.112L444.362 426.632H344.4L347.54 417.112L364.96 412.352C367.244 411.837 369.28 410.547 370.72 408.7C372.161 406.854 372.917 404.565 372.859 402.224L377.113 355.94H264.897L228.234 400.198C226.282 402.035 224.969 404.449 224.487 407.085C224.487 409.415 225.803 411.035 228.74 411.845L245.654 417.112L242.514 426.632H158.453L162.2 417.112L179.62 412.858C186.312 410.787 192.212 406.723 196.534 401.211L423.397 134.444L446.894 130.19L425.018 402.325C424.511 408.098 425.018 411.845 431.905 413.466L447.501 417.112Z" fill="white"/>
</svg>
