<svg width="1104" height="1104" viewBox="0 0 1104 1104" fill="none" xmlns="http://www.w3.org/2000/svg">
<circle cx="552" cy="551" r="551" fill="#03DD03"/>
<path fill-rule="evenodd" clip-rule="evenodd" d="M285.66 67.6201C282.657 71.7596 278.978 75.4395 274.62 78.6601C276.248 82.2451 279.008 84.545 282.9 85.5601C276.397 85.989 269.957 85.989 263.58 85.5601C255.4 87.8793 254.48 90.6393 260.82 93.8401C253.279 94.98 245.919 96.8201 238.74 99.3601C233.52 103.341 228 106.561 222.18 109.02C229.935 101.746 238.215 94.8459 247.02 88.3201C259.591 80.7997 272.472 73.8997 285.66 67.6201Z" fill="#3BD536"/>
<path fill-rule="evenodd" clip-rule="evenodd" d="M1036.38 291.18C1051.12 314.231 1062.16 339.071 1069.5 365.7C1063.98 361.954 1060.76 363.795 1059.84 371.22C1061.88 354.519 1058.2 338.878 1048.8 324.3C1046.04 327.06 1043.28 329.82 1040.52 332.58C1039.14 325.619 1039.6 318.719 1041.9 311.88C1038.15 305.614 1036.3 298.714 1036.38 291.18Z" fill="#36D532"/>
<path fill-rule="evenodd" clip-rule="evenodd" d="M528.54 431.94C518.378 431.484 508.26 431.943 498.18 433.32C495.05 436.124 495.97 437.965 500.94 438.84C498.18 439.301 495.42 439.759 492.66 440.22C484.281 436.952 476.001 436.952 467.82 440.22C472.28 436.11 477.8 433.35 484.38 431.94C499.522 428.31 514.244 428.31 528.54 431.94Z" fill="white"/>
<path fill-rule="evenodd" clip-rule="evenodd" d="M528.541 431.94C536.561 433.201 543.919 435.961 550.621 440.22C550.621 442.061 550.621 443.899 550.621 445.74C550.596 450.73 551.976 455.331 554.761 459.54C555.227 493.14 556.607 526.26 558.901 558.9C559.665 565.049 562.425 569.65 567.181 572.7C567.181 576.379 569.022 578.22 572.701 578.22C586.887 580.947 601.609 581.866 616.861 580.98C616.861 583.74 616.861 586.5 616.861 589.26C627.233 587.753 634.594 582.233 638.941 572.7C644.731 571.438 649.329 568.678 652.741 564.42C655.501 562.579 658.261 560.741 661.021 558.9C675.751 553.374 690.47 547.854 705.181 542.34C721.387 536.56 737.947 531.498 754.861 527.16C751.394 526.009 749.553 523.71 749.341 520.26C768.393 506.979 788.632 495.478 810.061 485.76C814.662 484.841 819.26 483.919 823.861 483C847.47 467.53 873.229 456.49 901.141 449.88C902.675 448.823 903.594 447.443 903.901 445.74C914.874 443.546 925.914 441.705 937.021 440.22C938.862 440.22 940.7 440.22 942.541 440.22C959.702 436.979 976.723 436.979 993.601 440.22C995.442 484.38 995.442 528.54 993.601 572.7C986.11 576.829 978.291 579.589 970.141 580.98C938.983 584.993 909.542 594.195 881.821 608.58C860.831 617.219 839.673 625.959 818.341 634.8C769.417 661.103 719.737 685.943 669.301 709.32C638.124 721.025 605.923 726.087 572.701 724.5C565.475 719.112 559.033 712.673 553.381 705.18C551.082 665.651 549.702 626.092 549.241 586.5C547.287 584.068 544.985 582.23 542.341 580.98C526.037 574.673 509.019 573.754 491.281 578.22C477.072 583.872 462.814 588.931 448.501 593.4C444.187 595.495 441.427 598.715 440.221 603.06C428.43 603.907 417.39 607.125 407.101 612.72C388.424 622.388 370.023 632.048 351.901 641.7C322.399 656.471 292.961 671.193 263.581 685.86C254.94 684.226 248.5 686.986 244.261 694.14C240.47 693.706 236.79 694.167 233.221 695.52C227.436 697.554 222.836 700.772 219.421 705.18C216.661 705.18 213.901 705.18 211.141 705.18C189.562 712.063 167.482 716.664 144.901 718.98C135.701 718.98 126.501 718.98 117.301 718.98C114.747 673.045 113.827 627.047 114.541 580.98C120.837 582.147 125.437 580.306 128.341 575.46C130.181 575.46 131.101 574.541 131.101 572.7C147.885 572.186 164.445 569.887 180.781 565.8C205.764 556.402 230.604 546.742 255.301 536.82C258.061 536.82 260.821 536.82 263.581 536.82C263.581 539.58 263.581 542.34 263.581 545.1C268.181 545.1 272.781 545.1 277.381 545.1C277.381 539.58 277.381 534.06 277.381 528.54C287.115 526.442 296.314 522.76 304.981 517.5C306.822 519.341 308.66 521.179 310.501 523.02C313.843 520.883 313.843 518.584 310.501 516.12C314.069 514.767 317.751 514.306 321.541 514.74C321.243 509.181 323.081 504.583 327.061 500.94C363.123 479.726 400.844 462.247 440.221 448.5C447.985 449.811 453.505 447.051 456.781 440.22C460.46 440.22 464.142 440.22 467.821 440.22C476.001 436.952 484.281 436.952 492.661 440.22C495.421 439.759 498.181 439.301 500.941 438.84C495.97 437.965 495.051 436.124 498.181 433.32C508.26 431.942 518.378 431.484 528.541 431.94Z" fill="white"/>
<path fill-rule="evenodd" clip-rule="evenodd" d="M970.139 580.98C978.289 579.589 986.108 576.829 993.599 572.7C995.44 528.54 995.44 484.38 993.599 440.22C976.722 436.979 959.701 436.979 942.539 440.22C943.693 438.227 945.531 436.847 948.059 436.08C964.594 434.702 981.154 434.241 997.739 434.7C998.658 482.575 997.739 530.414 994.979 578.22C986.917 580.723 978.637 581.642 970.139 580.98Z" fill="white"/>
<path fill-rule="evenodd" clip-rule="evenodd" d="M456.781 440.22C453.505 447.051 447.985 449.811 440.221 448.5C445.619 445.762 451.139 443.002 456.781 440.22Z" fill="#BFFBB6"/>
<path fill-rule="evenodd" clip-rule="evenodd" d="M550.619 445.74C554.666 448.078 556.967 451.757 557.519 456.78C558.899 490.808 559.36 524.847 558.899 558.9C556.606 526.26 555.226 493.14 554.759 459.54C551.975 455.331 550.595 450.73 550.619 445.74Z" fill="#BFFEBC"/>
<path fill-rule="evenodd" clip-rule="evenodd" d="M749.34 520.26C749.552 523.71 751.393 526.009 754.86 527.16C737.946 531.498 721.386 536.56 705.18 542.34C712.643 537.728 720.004 533.13 727.26 528.54C734.692 525.636 742.053 522.876 749.34 520.26Z" fill="white"/>
<path fill-rule="evenodd" clip-rule="evenodd" d="M327.061 500.94C323.081 504.584 321.243 509.182 321.541 514.74C317.751 514.307 314.069 514.768 310.501 516.12C313.843 518.585 313.843 520.884 310.501 523.02C308.66 521.18 306.822 519.341 304.981 517.5C296.314 522.761 287.115 526.443 277.381 528.54C277.381 534.06 277.381 539.58 277.381 545.1C272.781 545.1 268.181 545.1 263.581 545.1C263.581 542.34 263.581 539.58 263.581 536.82C260.821 536.82 258.061 536.82 255.301 536.82C279.075 524.933 302.996 512.974 327.061 500.94Z" fill="white"/>
<path fill-rule="evenodd" clip-rule="evenodd" d="M652.739 564.42C649.328 568.679 644.73 571.439 638.939 572.7C634.592 582.233 627.231 587.753 616.859 589.26C616.859 586.5 616.859 583.74 616.859 580.98C601.607 581.866 586.886 580.947 572.699 578.22C600.495 579.694 627.173 575.093 652.739 564.42Z" fill="white"/>
<path fill-rule="evenodd" clip-rule="evenodd" d="M440.22 603.06C436.61 605.08 432.928 607.382 429.18 609.96C433.442 610.76 437.121 612.598 440.22 615.48C431.902 615.833 423.622 615.833 415.38 615.48C404.489 621.919 393.449 628.36 382.26 634.8C372.291 637.974 362.173 640.273 351.9 641.7C370.023 632.048 388.423 622.388 407.1 612.72C417.39 607.125 428.43 603.907 440.22 603.06Z" fill="#3FD538"/>
<path fill-rule="evenodd" clip-rule="evenodd" d="M351.9 641.7C351.152 646.701 349.311 651.299 346.38 655.5C332.759 652.395 323.56 657.915 318.78 672.06C315.369 674.119 311.687 675.038 307.74 674.82C307.572 680.594 304.812 684.734 299.46 687.24C291.864 687.825 284.964 690.124 278.76 694.14C271.99 691.4 265.09 690.939 258.06 692.76C251.02 695.137 244.58 698.357 238.74 702.42C232.55 705.108 226.11 706.03 219.42 705.18C222.835 700.772 227.435 697.554 233.22 695.52C236.789 694.168 240.469 693.707 244.26 694.14C250.674 690.95 257.114 688.19 263.58 685.86C292.96 671.194 322.398 656.472 351.9 641.7Z" fill="white"/>
<path fill-rule="evenodd" clip-rule="evenodd" d="M263.58 685.86C257.114 688.189 250.674 690.949 244.26 694.14C248.499 686.986 254.94 684.226 263.58 685.86Z" fill="white"/>
<circle cx="182.16" cy="436.08" r="71.76" fill="white"/>
<rect x="114" y="572" width="27" height="147" fill="white"/>
<path d="M464 595.5C464 619.8 360.452 704 305.5 704C250.548 704 183 754.301 183 730C183 705.7 230.5 704 280.5 676.501C334 659 464 571.199 464 595.5Z" fill="#03DD03"/>
<path d="M562 451.5C562 465.859 527.75 477 485.501 477C443.251 477 377.5 498.359 377.5 484C377.5 469.641 439.5 442.5 483.501 427.5C525.75 427.5 562 437.141 562 451.5Z" fill="white"/>
<rect x="552" y="452" width="10" height="129" fill="white"/>
<path d="M566 571.5C571.145 577.636 637.095 577.984 633.498 581C629.901 584.016 563.46 589.17 558.315 583.034C553.169 576.897 550.401 547.516 553.998 544.5C558.316 534.5 558.502 568 566 571.5Z" fill="white"/>
<path d="M594.501 703C594.501 715.703 580.77 724.5 570.001 724.5C559.231 724.5 553 717 553.501 703C553.501 690.297 560.731 680 571.501 680C582.27 680 594.501 690.297 594.501 703Z" fill="white"/>
<path d="M915 428.499C915 438.993 687.499 553.502 639 570.999C594.265 570.999 598 557.658 598 547.165C598 536.671 660.265 478.165 705 478.165C749.735 478.165 915 418.006 915 428.499Z" fill="#03DD03"/>
<path d="M1031.5 428C1031.5 440.979 993.467 439 941 439C878.5 447 785 511.979 785 499C785 486.021 883.033 402 935.5 402C987.967 402 1031.5 415.021 1031.5 428Z" fill="#03DD03"/>
</svg>
