<svg width="600" height="176" viewBox="0 0 600 176" fill="none" xmlns="http://www.w3.org/2000/svg">
<path d="M500.8 176C552.2 176 600 157.7 600 88C600 18.3 552.2 0 500.8 0H454.7L436.4 69.1V176H500.8ZM487.2 131.1V44.9H501.4C533.3 44.9 547.5 56.1 547.5 88C547.5 119.9 533.3 131.1 501.4 131.1H487.2ZM248.6 176H298.8L323.6 82.1L348.4 176H399.2L446.4 0H399.2L374.4 96.3L349 0H301.2L275.2 97.4L251.6 6.5L227.4 98L248.6 176ZM47.8 176H98.6L123.4 82.1L148.2 176H198.4L245.6 0H198.9L174.2 96.9L148.2 0H100.4L75 96.3L50.2 0H0L47.8 176Z" fill="white"/>
</svg>
